<svg width="340" height="309" viewBox="0 0 340 309" fill="none" xmlns="http://www.w3.org/2000/svg">
<path d="M324.816 142.659C321.253 126.82 314.997 111.357 307.557 97.1433C294.733 72.6211 273.721 52.258 246.84 40.1699C180.88 10.5059 133.28 22.8659 107.44 46.9679C81.6002 71.0699 89.0802 112.476 61.2002 130.398C33.3202 148.32 13.6002 156.354 12.2402 189.108C10.8802 221.862 28.5602 246.582 57.1202 254.616C85.6802 262.65 128.52 288.606 214.2 273.774C299.88 258.942 320.96 217.536 326.4 187.872C329.12 172.947 328.182 157.633 324.816 142.659Z" fill="#CBCBCB"/>
<path opacity="0.7" d="M324.816 142.659C321.253 126.82 314.997 111.357 307.557 97.1433C294.733 72.6211 273.721 52.258 246.84 40.1699C180.88 10.5059 133.28 22.8659 107.44 46.9679C81.6002 71.0699 89.0802 112.476 61.2002 130.398C33.3202 148.32 13.6002 156.354 12.2402 189.108C10.8802 221.862 28.5602 246.582 57.1202 254.616C85.6802 262.65 128.52 288.606 214.2 273.774C299.88 258.942 320.96 217.536 326.4 187.872C329.12 172.947 328.182 157.633 324.816 142.659Z" fill="white"/>
<path d="M123.978 52.2334H117.817V77.0461H123.978V52.2334Z" fill="#C9C9C9" stroke="#263238" stroke-linecap="round" stroke-linejoin="round"/>
<path d="M123.978 55.9661H117.817V58.3886H123.978V55.9661Z" fill="white" stroke="#263238" stroke-linecap="round" stroke-linejoin="round"/>
<path d="M123.978 71.3604H117.817V73.7829H123.978V71.3604Z" fill="white" stroke="#263238" stroke-linecap="round" stroke-linejoin="round"/>
<path d="M131.165 52.2334H122.543V77.0461H131.165V52.2334Z" fill="#878787" stroke="#263238" stroke-linecap="round" stroke-linejoin="round"/>
<path d="M130.553 52.2334H124.393V77.0461H130.553V52.2334Z" fill="#C9C9C9" stroke="#263238" stroke-linecap="round" stroke-linejoin="round"/>
<path d="M130.553 55.9661H124.393V58.3886H130.553V55.9661Z" fill="white" stroke="#263238" stroke-linecap="round" stroke-linejoin="round"/>
<path d="M130.553 71.3604H124.393V73.7829H130.553V71.3604Z" fill="white" stroke="#263238" stroke-linecap="round" stroke-linejoin="round"/>
<path d="M137.734 52.2334H129.112V77.0461H137.734V52.2334Z" fill="#878787" stroke="#263238" stroke-linecap="round" stroke-linejoin="round"/>
<path d="M137.122 52.2334H130.961V77.0461H137.122V52.2334Z" fill="#C9C9C9" stroke="#263238" stroke-linecap="round" stroke-linejoin="round"/>
<path d="M137.122 55.9661H130.961V58.3886H137.122V55.9661Z" fill="white" stroke="#263238" stroke-linecap="round" stroke-linejoin="round"/>
<path d="M137.122 71.3604H130.961V73.7829H137.122V71.3604Z" fill="white" stroke="#263238" stroke-linecap="round" stroke-linejoin="round"/>
<path d="M144.303 52.2334H135.681V77.0461H144.303V52.2334Z" fill="#C9C9C9" stroke="#263238" stroke-linecap="round" stroke-linejoin="round"/>
<path d="M149.92 77.2994H164.39L168.239 74.1353H149.92V77.2994Z" fill="white" stroke="#263238" stroke-linecap="round" stroke-linejoin="round"/>
<path d="M166.6 77.46L166.138 76.737L149.621 76.7061L150.097 77.46H166.6Z" fill="white" stroke="#263238" stroke-linecap="round" stroke-linejoin="round"/>
<path d="M141.542 52.7501L136.209 55.553L149.876 77.0327L155.21 74.2298L141.542 52.7501Z" fill="#C9C9C9" stroke="#263238" stroke-linecap="round" stroke-linejoin="round"/>
<path d="M143.6 55.9727L138.267 58.7756L139.601 60.8728L144.934 58.0699L143.6 55.9727Z" fill="white" stroke="#263238" stroke-linecap="round" stroke-linejoin="round"/>
<path d="M152.085 69.2977L146.751 72.1006L148.086 74.1977L153.419 71.3948L152.085 69.2977Z" fill="white" stroke="#263238" stroke-linecap="round" stroke-linejoin="round"/>
<path d="M168.144 74.3514L155.067 74.3205L141.399 52.8389L154.476 52.8698L168.144 74.3514Z" fill="#C9C9C9" stroke="#263238" stroke-linecap="round" stroke-linejoin="round"/>
<path d="M175.27 64.7355C175.27 64.7355 172.89 63.963 172.21 60.564C171.53 57.165 170.34 52.3755 171.7 51.294C173.06 50.2125 175.61 49.5945 175.95 51.7575C176.29 53.9205 175.78 58.092 176.29 59.019C176.8 59.946 178.5 59.328 178.5 57.474C178.5 54.421 177.14 51.294 177.623 48.204C178.303 43.9336 183.063 43.4639 183.573 48.204C183.858 50.8243 183.94 53.5002 183.94 56.1329C183.94 57.2144 185.98 57.8324 185.81 55.2059C185.688 53.3519 187.17 51.1889 189.21 51.8069C191.25 52.4249 189.55 60.6134 188.87 62.0039C188.19 63.3944 183.94 63.654 183.94 63.654V67.2075L178.84 67.362L178.67 63.8085C177.632 64.354 176.467 64.6714 175.27 64.7355V64.7355Z" fill="#CBCBCB" stroke="#263238" stroke-linecap="round" stroke-linejoin="round"/>
<path d="M179.86 57.9622C179.922 58.7347 179.962 59.1982 179.962 59.1982" stroke="#263238" stroke-linecap="round" stroke-linejoin="round"/>
<path d="M180.2 45.9792C180.2 45.9792 179.085 46.6838 179.166 48.7973C179.221 50.0828 179.493 53.6425 179.704 56.2442" stroke="#263238" stroke-linecap="round" stroke-linejoin="round"/>
<path d="M182.118 53.2654L182.294 58.438" stroke="#263238" stroke-linecap="round" stroke-linejoin="round"/>
<path d="M184.607 61.8C184.213 61.8561 183.815 61.8873 183.417 61.8933" stroke="#263238" stroke-linecap="round" stroke-linejoin="round"/>
<path d="M188.156 53.1108C187.763 53.7873 187.556 54.5399 187.551 55.3047C187.551 56.5407 187.639 60.0077 186.776 60.9471C186.565 61.158 186.308 61.3264 186.021 61.4415" stroke="#263238" stroke-linecap="round" stroke-linejoin="round"/>
<path d="M173.4 60.0632C173.605 60.9924 174.095 61.8497 174.815 62.5352C175.24 62.8448 175.766 63.0196 176.311 63.033C176.856 63.0463 177.391 62.8976 177.834 62.6094" stroke="#263238" stroke-linecap="round" stroke-linejoin="round"/>
<path d="M173.237 51.7019C173.237 51.7019 171.517 51.7019 172.115 54.4396C172.374 55.5953 172.612 57.0167 172.918 58.3578" stroke="#263238" stroke-linecap="round" stroke-linejoin="round"/>
<path d="M179.704 62.1213L180.05 65.4894" stroke="#263238" stroke-linecap="round" stroke-linejoin="round"/>
<path d="M188.53 65.8169L187.911 70.4272L187.49 73.5666L187 77.219H174.767L174.277 73.5666L173.856 70.4272L173.237 65.8169H188.53Z" fill="white" stroke="#263238" stroke-linecap="round" stroke-linejoin="round"/>
<path d="M187.912 70.4272L187.49 73.5667H174.278L173.856 70.4272H187.912Z" fill="#CBCBCB" stroke="#263238" stroke-linecap="round" stroke-linejoin="round"/>
<path d="M195.249 77.219H116.729V81.9467H195.249V77.219Z" fill="white" stroke="#263238" stroke-linecap="round" stroke-linejoin="round"/>
<path d="M195.249 77.219H177.147V81.9467H195.249V77.219Z" fill="white" stroke="#263238" stroke-linecap="round" stroke-linejoin="round"/>
<path d="M175.386 81.9653C183.797 84.7834 182.281 90.1106 182.281 90.1106H190.244V81.9653H175.386Z" fill="#919191" stroke="#263238" stroke-linecap="round" stroke-linejoin="round"/>
<path d="M178.072 81.9653C186.477 84.7834 184.96 90.1106 184.96 90.1106H192.93V81.9653H178.072Z" fill="white" stroke="#263238" stroke-linecap="round" stroke-linejoin="round"/>
<path d="M121.496 81.9653C129.907 84.7834 128.391 90.1106 128.391 90.1106H136.354V81.9653H121.496Z" fill="#919191" stroke="#263238" stroke-linecap="round" stroke-linejoin="round"/>
<path d="M124.182 81.9653C132.586 84.7834 131.07 90.1106 131.07 90.1106H139.04V81.9653H124.182Z" fill="white" stroke="#263238" stroke-linecap="round" stroke-linejoin="round"/>
<path d="M304.667 53.1172H234.247V141.961H304.667V53.1172Z" fill="#919191" stroke="#263238" stroke-linecap="round" stroke-linejoin="round"/>
<path d="M301.614 56.9736H237.307V138.105H301.614V56.9736Z" fill="#CBCBCB"/>
<path opacity="0.5" d="M301.614 56.9736H237.307V138.105H301.614V56.9736Z" fill="white"/>
<path d="M251.444 131.943C249.719 134.333 247.541 136.426 245.011 138.123H301.614V56.9734H291.183L289.823 57.3627C279.623 60.2859 269.083 68.7463 263.106 84.1221" stroke="#263238" stroke-linecap="round" stroke-linejoin="round"/>
<path d="M262.113 86.8167C259.738 94.1494 258.426 101.732 258.21 109.374C257.836 118.545 255.687 125.139 252.817 129.879" stroke="#263238" stroke-linecap="round" stroke-linejoin="round"/>
<path d="M295.324 77.5652C285.974 82.5092 275.087 90.8151 271.021 103.552C268.838 110.35 270.885 116.481 274.931 121.727" stroke="#263238" stroke-linecap="round" stroke-linejoin="round"/>
<path d="M277.121 124.286C282.731 130.256 290.721 134.953 297.187 138.111H301.614V74.5679C300.349 75.1055 299.003 75.7112 297.602 76.4219" stroke="#263238" stroke-linecap="round" stroke-linejoin="round"/>
<path d="M247.996 78.1275C252.919 69.0058 253.436 61.7691 252.872 56.9734H237.32V94.0905C239.619 91.1179 242.434 87.1442 245.834 81.817C246.045 81.4895 246.242 81.199 246.439 80.8529" stroke="#263238" stroke-linecap="round" stroke-linejoin="round"/>
<path d="M254.089 113.261C253.334 117.754 251.063 121.017 248.384 121.017C245.086 121.017 242.407 116.073 242.407 109.955C242.407 103.837 245.086 98.8926 248.384 98.8926C251.682 98.8926 254.361 103.837 254.361 109.955" stroke="#263238" stroke-linecap="round" stroke-linejoin="round"/>
<path d="M256.925 87.2494C256.925 89.604 255.782 91.5198 254.361 91.5198C252.94 91.5198 251.804 89.604 251.804 87.2494C251.804 84.8948 252.947 82.979 254.361 82.979C255.775 82.979 256.925 84.8886 256.925 87.2494Z" stroke="#263238" stroke-linecap="round" stroke-linejoin="round"/>
<path d="M289.551 105.289C292.019 106.358 293.631 108.224 293.631 110.344C293.631 113.663 289.619 116.357 284.662 116.357C279.704 116.357 275.699 113.663 275.699 110.344C275.699 107.025 279.711 104.325 284.662 104.325C285.452 104.324 286.24 104.395 287.014 104.535" stroke="#263238" stroke-linecap="round" stroke-linejoin="round"/>
<path d="M288.443 110.344C288.443 111.735 286.763 112.865 284.682 112.865C282.601 112.865 280.922 111.735 280.922 110.344C280.922 108.954 282.608 107.816 284.682 107.816C286.756 107.816 288.443 108.947 288.443 110.344Z" stroke="#263238" stroke-linecap="round" stroke-linejoin="round"/>
<path d="M294.508 95.0112C294.508 96.9394 292.407 98.5029 289.809 98.5029C287.212 98.5029 285.11 96.9394 285.11 95.0112C285.11 93.0831 287.212 91.5195 289.809 91.5195C292.407 91.5195 294.508 93.0831 294.508 95.0112Z" stroke="#263238" stroke-linecap="round" stroke-linejoin="round"/>
<path d="M260.556 75.6062C262.325 75.6062 263.759 72.3911 263.759 68.4251C263.759 64.459 262.325 61.2439 260.556 61.2439C258.787 61.2439 257.353 64.459 257.353 68.4251C257.353 72.3911 258.787 75.6062 260.556 75.6062Z" stroke="#263238" stroke-linecap="round" stroke-linejoin="round"/>
<path d="M269.314 130.139C269.314 130.945 269.051 131.734 268.558 132.405C268.065 133.075 267.364 133.598 266.544 133.907C265.724 134.216 264.821 134.296 263.951 134.139C263.08 133.982 262.281 133.593 261.653 133.023C261.025 132.452 260.598 131.726 260.425 130.934C260.251 130.143 260.34 129.323 260.68 128.578C261.02 127.832 261.595 127.195 262.333 126.747C263.071 126.299 263.939 126.06 264.826 126.06C266.017 126.06 267.158 126.49 268 127.254C268.842 128.019 269.314 129.057 269.314 130.139Z" stroke="#263238" stroke-linecap="round" stroke-linejoin="round"/>
<path d="M290.238 69.5869C290.239 70.0873 290.077 70.5769 289.772 70.9935C289.467 71.4101 289.032 71.735 288.524 71.9271C288.016 72.1192 287.456 72.1697 286.916 72.0724C286.375 71.9751 285.879 71.7342 285.49 71.3803C285.101 71.0265 284.836 70.5755 284.728 70.0846C284.621 69.5938 284.677 69.085 284.888 68.6229C285.1 68.1608 285.457 67.7661 285.916 67.4888C286.374 67.2116 286.913 67.0642 287.463 67.0654C288.199 67.0671 288.903 67.3332 289.423 67.8058C289.943 68.2783 290.236 68.9187 290.238 69.5869Z" stroke="#263238" stroke-linecap="round" stroke-linejoin="round"/>
<path d="M272.728 87.4408C272.729 87.71 272.643 87.9735 272.479 88.1979C272.315 88.4223 272.082 88.5975 271.809 88.7013C271.536 88.8052 271.235 88.833 270.944 88.7812C270.654 88.7295 270.386 88.6005 270.176 88.4106C269.967 88.2207 269.823 87.9785 269.765 87.7145C269.707 87.4506 269.736 87.1769 269.849 86.9282C269.962 86.6794 270.154 86.4667 270.4 86.317C270.646 86.1673 270.936 86.0874 271.232 86.0874C271.428 86.0866 271.622 86.121 271.804 86.1887C271.985 86.2563 272.15 86.3559 272.289 86.4816C272.428 86.6074 272.539 86.7569 272.614 86.9215C272.689 87.0861 272.728 87.2626 272.728 87.4408V87.4408Z" stroke="#263238" stroke-linecap="round" stroke-linejoin="round"/>
<path d="M301.614 56.9736H237.307V138.105H301.614V56.9736Z" stroke="#263238" stroke-linecap="round" stroke-linejoin="round"/>
<path d="M196.513 172.663H179.044V178.639H196.513V172.663Z" fill="#263238" stroke="#263238" stroke-linecap="round" stroke-linejoin="round"/>
<path d="M219.953 173.565H150.423L153.714 124.583H223.251L219.953 173.565Z" fill="#919191" stroke="#263238" stroke-linecap="round" stroke-linejoin="round"/>
<path d="M217.961 173.565H148.431L151.722 124.583H221.252L217.961 173.565Z" fill="#263238" stroke="#263238" stroke-linecap="round" stroke-linejoin="round"/>
<path d="M214.282 170.84H152.477L155.401 127.302H217.206L214.282 170.84Z" fill="white" stroke="#263238" stroke-linecap="round" stroke-linejoin="round"/>
<path d="M196.303 164.351H154.319L156.57 130.8H198.56L196.303 164.351Z" fill="#919191" stroke="#263238" stroke-linecap="round" stroke-linejoin="round"/>
<path d="M170.884 149.939C170.884 149.939 162.139 153.085 162.085 153.932C162.03 154.778 160.317 164.351 160.317 164.351H186.32L184.13 153.326L174.509 149.692L170.884 149.939Z" fill="white" stroke="#263238" stroke-linecap="round" stroke-linejoin="round"/>
<path d="M171.143 147.999C170.484 148.156 169.873 148.446 169.354 148.845C168.674 149.463 167.845 151.509 167.845 151.509L167.811 153.932L171.258 152.238L174.76 152.028L178.038 154.815L178.459 150.576C178.459 150.576 177.956 148.153 176.895 148.03C175.835 147.906 171.143 147.999 171.143 147.999Z" fill="white" stroke="#263238" stroke-linecap="round" stroke-linejoin="round"/>
<path d="M171.034 145.7L170.884 149.939L172.945 152.967L176.351 149.816L176.882 145.941L171.034 145.7Z" fill="white" stroke="#263238" stroke-linecap="round" stroke-linejoin="round"/>
<path d="M179.439 140.743C179.194 144.297 176.596 148.604 173.747 148.604C170.898 148.604 168.878 144.278 169.116 140.743C169.354 137.208 171.836 134.31 174.706 134.31C177.575 134.31 179.677 137.196 179.439 140.743Z" fill="white" stroke="#263238" stroke-linecap="round" stroke-linejoin="round"/>
<path d="M169.069 141.213C169.069 141.213 168.151 139.038 167.77 140.731C167.389 142.424 169.266 144.241 169.266 144.241L169.069 141.213Z" fill="white" stroke="#263238" stroke-linecap="round" stroke-linejoin="round"/>
<path d="M179.439 140.743C179.439 140.743 181.69 139.884 181.03 141.701C180.863 142.215 180.57 142.689 180.175 143.087C179.779 143.485 179.291 143.797 178.745 144L179.439 140.743Z" fill="white" stroke="#263238" stroke-linecap="round" stroke-linejoin="round"/>
<path d="M173.468 141.213C173.486 140.995 173.454 140.776 173.373 140.569C173.293 140.363 173.166 140.174 173.001 140.015C172.836 139.856 172.636 139.73 172.415 139.644C172.193 139.559 171.954 139.517 171.714 139.52C171.212 139.532 170.734 139.711 170.369 140.023C170.004 140.336 169.778 140.759 169.735 141.213C169.717 141.431 169.749 141.651 169.829 141.858C169.91 142.064 170.036 142.253 170.201 142.413C170.366 142.573 170.566 142.7 170.788 142.786C171.009 142.872 171.248 142.915 171.489 142.913C171.991 142.9 172.471 142.72 172.836 142.407C173.201 142.093 173.426 141.668 173.468 141.213V141.213Z" fill="white" stroke="#263238" stroke-linecap="round" stroke-linejoin="round"/>
<path d="M177.997 141.213L180.03 140.731" stroke="#263238" stroke-linecap="round" stroke-linejoin="round"/>
<path d="M177.997 141.213C178.015 140.996 177.983 140.777 177.903 140.571C177.823 140.365 177.697 140.177 177.532 140.018C177.368 139.858 177.169 139.732 176.948 139.646C176.727 139.561 176.489 139.518 176.249 139.52C175.747 139.53 175.266 139.709 174.9 140.021C174.534 140.334 174.307 140.758 174.264 141.213C174.246 141.432 174.278 141.651 174.358 141.858C174.438 142.064 174.565 142.253 174.73 142.413C174.895 142.573 175.095 142.7 175.316 142.786C175.538 142.872 175.777 142.915 176.018 142.913C176.52 142.901 177 142.72 177.365 142.407C177.73 142.093 177.955 141.668 177.997 141.213V141.213Z" fill="white" stroke="#263238" stroke-linecap="round" stroke-linejoin="round"/>
<path d="M174.243 133.581C174.243 133.581 172.203 132.617 170.673 133.222C169.143 133.828 168.015 137.097 168.089 137.944C168.329 139.053 168.657 140.146 169.069 141.213L170.687 136.974L174.93 135.28L174.243 133.581Z" fill="#263238" stroke="#263238" stroke-linecap="round" stroke-linejoin="round"/>
<path d="M172.19 134.434C172.19 134.434 175.549 132.011 178.269 133.198C179.102 133.527 179.79 134.098 180.224 134.823C180.659 135.547 180.816 136.382 180.669 137.196C180.629 137.814 180.574 140.583 180.574 140.583L178.956 140.83L178.16 138.55C177.241 138.219 176.346 137.835 175.481 137.4C175.481 137.4 171.884 136.974 172.19 134.434Z" fill="#263238" stroke="#263238" stroke-linecap="round" stroke-linejoin="round"/>
<path d="M173.468 141.213L173.23 144.73H174.162" fill="white"/>
<path d="M173.468 141.213L173.23 144.73H174.162" stroke="#263238" stroke-linecap="round" stroke-linejoin="round"/>
<path d="M172.741 146.058H174.74" stroke="#263238" stroke-linecap="round" stroke-linejoin="round"/>
<path d="M172.945 152.968L172.204 163.986" stroke="#263238" stroke-linecap="round" stroke-linejoin="round"/>
<path d="M184.117 153.326C184.117 153.326 181.336 159.024 181.254 160.235C181.173 161.446 180.86 164.11 180.86 164.11" stroke="#263238" stroke-linecap="round" stroke-linejoin="round"/>
<path d="M162.085 153.932C162.085 153.932 164.853 158.295 165.213 158.876C165.573 159.457 165.131 164.085 165.131 164.085" stroke="#263238" stroke-linecap="round" stroke-linejoin="round"/>
<path d="M185.973 157.448L186.891 153.69L188.455 152.238L189.931 150.057H190.597L189.781 152.362L191.848 151.268L193.181 149.333L193.956 149.692L192.052 154.179L189.033 155.507L188.51 157.324L185.973 157.448Z" fill="white" stroke="#263238" stroke-linecap="round" stroke-linejoin="round"/>
<path d="M188.558 164.351L188.809 156.842L185.776 156.354L183.383 164.351H188.558Z" fill="white" stroke="#263238" stroke-linecap="round" stroke-linejoin="round"/>
<path d="M196.119 167.138H154.129L154.319 164.351H196.303L196.119 167.138Z" fill="white" stroke="#263238" stroke-linecap="round" stroke-linejoin="round"/>
<path d="M155.843 165.445H194.365" stroke="#263238" stroke-linecap="round" stroke-linejoin="round"/>
<path d="M214.35 139.755H200.219L200.818 130.911H214.948L214.35 139.755Z" fill="#CBCBCB" stroke="#263238" stroke-linecap="round" stroke-linejoin="round"/>
<path d="M214.35 139.755H200.219L200.321 138.302H214.452L214.35 139.755Z" fill="white" stroke="#263238" stroke-linecap="round" stroke-linejoin="round"/>
<path d="M209.787 134.817L206.115 132.821L205.85 136.813L209.787 134.817Z" fill="white" stroke="#263238" stroke-linecap="round" stroke-linejoin="round"/>
<path d="M213.432 153.443H199.301L199.893 144.606H214.023L213.432 153.443Z" fill="#CBCBCB" stroke="#263238" stroke-linecap="round" stroke-linejoin="round"/>
<path d="M213.432 153.443H199.301L199.403 151.991H213.527L213.432 153.443Z" fill="white" stroke="#263238" stroke-linecap="round" stroke-linejoin="round"/>
<path d="M208.869 148.512L205.197 146.516L204.932 150.508L208.869 148.512Z" fill="white" stroke="#263238" stroke-linecap="round" stroke-linejoin="round"/>
<path d="M212.507 167.138H198.383L198.975 158.295H213.105L212.507 167.138Z" fill="#CBCBCB" stroke="#263238" stroke-linecap="round" stroke-linejoin="round"/>
<path d="M212.507 167.138H198.383L198.479 165.686H212.609L212.507 167.138Z" fill="white" stroke="#263238" stroke-linecap="round" stroke-linejoin="round"/>
<path d="M207.944 162.2L204.279 160.204L204.007 164.197L207.944 162.2Z" fill="white" stroke="#263238" stroke-linecap="round" stroke-linejoin="round"/>
<path d="M200.26 141.213H213.983" stroke="#263238" stroke-linecap="round" stroke-linejoin="round"/>
<path d="M200.158 142.672H213.887" stroke="#263238" stroke-linecap="round" stroke-linejoin="round"/>
<path d="M199.329 155.025H213.058" stroke="#263238" stroke-linecap="round" stroke-linejoin="round"/>
<path d="M199.233 156.478H212.963" stroke="#263238" stroke-linecap="round" stroke-linejoin="round"/>
<path d="M193.243 178.639H182.92C182.92 177.703 183.329 176.806 184.058 176.144C184.786 175.482 185.773 175.111 186.803 175.111H189.346C190.376 175.111 191.364 175.482 192.092 176.144C192.82 176.806 193.229 177.703 193.229 178.639H193.243Z" fill="white" stroke="#263238" stroke-linecap="round" stroke-linejoin="round"/>
<path d="M178.004 176.717H127.534V178.639H178.004V176.717Z" fill="#919191" stroke="#263238" stroke-linecap="round" stroke-linejoin="round"/>
<path d="M177.99 176.717H165.308V178.639H177.99V176.717Z" fill="white" stroke="#263238" stroke-linecap="round" stroke-linejoin="round"/>
<path d="M106.849 84.4375V47.9199" stroke="#263238" stroke-linecap="round" stroke-linejoin="round"/>
<path d="M106.849 267.199V88.0713" stroke="#263238" stroke-linecap="round" stroke-linejoin="round"/>
<path d="M198.607 191.457L204.727 266.438C204.759 266.712 204.905 266.965 205.134 267.144C205.363 267.324 205.659 267.417 205.962 267.405C206.264 267.394 206.551 267.277 206.762 267.081C206.974 266.884 207.095 266.621 207.101 266.346L206.183 191.457H198.607Z" fill="#919191" stroke="#263238" stroke-linecap="round" stroke-linejoin="round"/>
<path d="M203.225 191.457L206.455 267.304C206.645 267.211 206.804 267.073 206.915 266.904C207.025 266.735 207.082 266.542 207.08 266.346L206.183 191.457H203.225Z" fill="white" stroke="#263238" stroke-linecap="round" stroke-linejoin="round"/>
<path d="M237.075 191.457L243.195 266.438C243.227 266.712 243.372 266.965 243.602 267.144C243.831 267.324 244.127 267.417 244.43 267.405C244.732 267.394 245.018 267.277 245.23 267.081C245.442 266.884 245.563 266.621 245.568 266.346L244.65 191.457H237.075Z" fill="#919191" stroke="#263238" stroke-linecap="round" stroke-linejoin="round"/>
<path d="M241.332 191.457L245.099 267.192C245.24 267.092 245.354 266.963 245.432 266.817C245.51 266.67 245.55 266.509 245.548 266.346L244.65 191.457H241.332Z" fill="white" stroke="#263238" stroke-linecap="round" stroke-linejoin="round"/>
<path d="M135.673 192.272L129.553 266.432C129.533 266.705 129.399 266.959 129.179 267.145C128.959 267.331 128.67 267.434 128.37 267.434V267.434C128.213 267.436 128.056 267.41 127.91 267.357C127.764 267.304 127.63 267.226 127.518 267.126C127.405 267.026 127.316 266.906 127.254 266.775C127.193 266.643 127.161 266.501 127.16 266.358L128.064 192.075L135.673 192.272Z" fill="#263238" stroke="#263238" stroke-linecap="round" stroke-linejoin="round"/>
<path d="M97.2399 192.272L91.1199 266.432C91.0992 266.705 90.9655 266.959 90.7458 267.145C90.5261 267.331 90.2369 267.434 89.9367 267.434V267.434C89.7798 267.433 89.6247 267.404 89.4802 267.348C89.3357 267.293 89.2048 267.212 89.0948 267.11C88.9848 267.009 88.8981 266.888 88.8395 266.756C88.7809 266.624 88.7517 266.482 88.7535 266.34L89.6579 192.056L97.2399 192.272Z" fill="#263238" stroke="#263238" stroke-linecap="round" stroke-linejoin="round"/>
<path d="M246.901 180.382H87.3525V192.062H246.901V180.382Z" fill="#919191" stroke="#263238" stroke-linecap="round" stroke-linejoin="round"/>
<path d="M246.901 180.382H201.178V192.062H246.901V180.382Z" fill="white" stroke="#263238" stroke-linecap="round" stroke-linejoin="round"/>
<path d="M246.901 182.236H87.3525V185.456H246.901V182.236Z" fill="#263238" stroke="#263238" stroke-linecap="round" stroke-linejoin="round"/>
<path d="M249.199 178.707H85.0542V182.613H249.199V178.707Z" fill="#919191" stroke="#263238" stroke-linecap="round" stroke-linejoin="round"/>
<path d="M249.192 178.707H204.115V182.613H249.192V178.707Z" fill="white" stroke="#263238" stroke-linecap="round" stroke-linejoin="round"/>
<path d="M200.797 106.296H178.643C177.489 106.296 176.382 106.713 175.566 107.454C174.75 108.196 174.291 109.202 174.291 110.251V117.667C174.29 118.187 174.402 118.701 174.62 119.182C174.839 119.662 175.159 120.098 175.564 120.466C175.968 120.833 176.448 121.124 176.977 121.323C177.505 121.521 178.071 121.623 178.643 121.622H190.244L185.899 132.654L194.222 121.622H200.797C201.369 121.623 201.936 121.521 202.464 121.323C202.992 121.124 203.472 120.833 203.877 120.466C204.281 120.098 204.602 119.662 204.82 119.182C205.038 118.701 205.15 118.187 205.149 117.667V110.251C205.149 109.202 204.691 108.196 203.875 107.454C203.059 106.713 201.952 106.296 200.797 106.296Z" fill="white" stroke="#263238" stroke-linecap="round" stroke-linejoin="round"/>
<path d="M183.784 115.646C184.659 115.646 185.368 115.002 185.368 114.206C185.368 113.411 184.659 112.766 183.784 112.766C182.909 112.766 182.199 113.411 182.199 114.206C182.199 115.002 182.909 115.646 183.784 115.646Z" fill="#263238"/>
<path d="M189.72 115.646C190.595 115.646 191.305 115.002 191.305 114.206C191.305 113.411 190.595 112.766 189.72 112.766C188.845 112.766 188.136 113.411 188.136 114.206C188.136 115.002 188.845 115.646 189.72 115.646Z" fill="#263238"/>
<path d="M197.234 114.206C197.234 113.921 197.141 113.643 196.967 113.406C196.792 113.169 196.544 112.984 196.255 112.875C195.965 112.767 195.646 112.738 195.338 112.794C195.031 112.851 194.748 112.988 194.527 113.19C194.306 113.392 194.155 113.649 194.095 113.929C194.035 114.209 194.067 114.499 194.188 114.762C194.309 115.025 194.513 115.249 194.775 115.407C195.036 115.564 195.343 115.647 195.657 115.646C195.864 115.646 196.07 115.609 196.262 115.536C196.454 115.464 196.628 115.358 196.775 115.224C196.921 115.09 197.037 114.932 197.116 114.757C197.195 114.582 197.235 114.395 197.234 114.206Z" fill="#263238"/>
<path d="M306 267.594H324.36" stroke="#263238" stroke-linecap="round" stroke-linejoin="round"/>
<path d="M16.3198 267.594H296.48" stroke="#263238" stroke-linecap="round" stroke-linejoin="round"/>
<path d="M124.195 158.381C122.203 155.291 116.341 143.395 116.341 143.395C116.518 142.124 116.805 140.867 117.198 139.637C117.681 138.401 118.898 134.656 118.653 133.877C118.409 133.099 114.879 131.665 114.519 131.554C114.159 131.442 115.002 129.564 113.662 129.119C112.323 128.674 111.84 129.341 111.84 129.341L111.33 132.431L109.766 134.656C109.115 134.206 108.433 133.793 107.726 133.42C106.631 132.864 104.074 132.641 103.952 133.531C103.829 134.421 105.992 135.188 106.747 135.744C107.501 136.3 108.453 138.951 109.31 139.73C110.089 140.502 110.82 141.313 111.5 142.159L111.989 143.599C111.989 143.599 113.655 158.177 113.853 161.805C114.05 165.432 114.648 175.03 115.845 176.476C117.042 177.922 117.246 178.837 120.605 177.749C123.964 176.662 124.59 175.209 125.365 171.946C126.14 168.683 126.188 161.459 124.195 158.381Z" fill="white" stroke="#263238" stroke-linecap="round" stroke-linejoin="round"/>
<path d="M125.392 171.965C126.188 168.708 126.188 161.459 124.195 158.369C123.978 158.029 123.712 157.59 123.413 157.071C118.905 155.878 114.621 157.825 114.621 157.825L113.533 158.257C113.676 159.771 113.784 161.038 113.825 161.811C114.029 165.432 114.621 175.036 115.818 176.482C117.014 177.928 117.218 178.843 120.578 177.755C123.937 176.668 124.59 175.228 125.392 171.965Z" fill="#CBCBCB" stroke="#263238" stroke-linecap="round" stroke-linejoin="round"/>
<path d="M109.657 109.386C110.148 111.025 110.422 112.712 110.473 114.41C110.473 116.827 109.657 118.316 110.888 119.058C112.119 119.799 113.139 119.805 112.928 121.295C112.847 122.117 112.488 122.896 111.901 123.526C111.901 123.526 111.493 131.152 111.085 131.9C110.677 132.648 105.353 131.714 104.122 131.523C102.891 131.331 99.4162 132.827 97.1586 128.736C94.901 124.644 96.7506 118.501 100.844 115.337C103.66 113.209 106.602 111.222 109.657 109.386V109.386Z" fill="white" stroke="#263238" stroke-linecap="round" stroke-linejoin="round"/>
<path d="M110.473 114.38C110.473 114.38 109.365 113.626 108.78 114.948" stroke="#263238" stroke-linecap="round" stroke-linejoin="round"/>
<path d="M109.48 117.457C109.321 118.207 109.372 118.98 109.63 119.707" stroke="#263238" stroke-linecap="round" stroke-linejoin="round"/>
<path d="M111.52 126.196C111.338 126.249 111.146 126.266 110.957 126.247C110.767 126.229 110.584 126.174 110.419 126.086C110.254 125.999 110.111 125.881 110 125.74C109.889 125.599 109.811 125.438 109.772 125.269" stroke="#263238" stroke-linecap="round" stroke-linejoin="round"/>
<path d="M113.839 161.174C113.839 161.174 113.159 164.005 112.554 165.5C111.949 166.996 101.096 169.74 96.3698 170.309C93.2566 170.662 90.1232 170.85 86.9858 170.871L87.285 178.695C87.285 178.695 96.4378 178.862 97.0838 178.695C97.7298 178.528 113.139 172.268 113.139 172.268L119.789 171.477C119.789 171.477 122.584 170.859 122.693 168.887C122.801 166.916 120.333 161.31 119.211 160.439C118.089 159.568 115.723 157.256 114.301 158.678C112.88 160.099 113.839 161.174 113.839 161.174Z" fill="white" stroke="#263238" stroke-linecap="round" stroke-linejoin="round"/>
<path d="M93.4321 175.222C93.4321 171.841 94.3841 171.755 95.4721 170.414C92.6607 170.699 89.8349 170.852 87.0061 170.871L86.7817 178.052C86.7817 178.052 91.7933 178.472 94.8465 178.67C94.5949 179.022 93.4321 177.397 93.4321 175.222Z" fill="#CBCBCB" stroke="#263238" stroke-linecap="round" stroke-linejoin="round"/>
<path d="M122.985 190.424C119.364 186.726 114.761 183.933 109.616 182.31L97.675 186.939C96.7477 184.87 95.5171 182.924 94.0166 181.154L91.7862 178.682L93.221 171.594C93.221 171.594 101.816 166.242 102.925 163.924L102.965 163.85C104.693 166.279 112.186 176.791 113.594 177.811C115.185 178.973 119.959 179.115 122.026 177.378C124.093 175.642 125.052 174.486 124.576 171.884C124.576 171.884 121.393 165.661 119.639 162.911C117.885 160.161 114.07 150.328 112.159 147.288C110.799 145.112 110.235 143.58 109.269 142.554C108.599 141.504 107.808 140.522 106.909 139.625C104.999 137.771 99.7422 137.307 98.627 136.874C97.5118 136.442 97.3554 136.294 90.9906 134.563C84.6258 132.833 77.4586 131.813 72.3654 135.428C72.3654 135.428 65.5246 142.807 62.8454 154.957C60.1662 167.107 59.9758 179.405 59.663 181.574C59.3502 183.744 56.637 194.305 55.8414 200.38C55.0458 206.455 62.0226 212.555 66.3202 214.446C70.6178 216.337 89.0798 216.615 99.9054 214.446C110.731 212.277 127.921 202.438 127.921 202.438C127.921 202.438 128.554 196.357 122.985 190.424Z" fill="#CBCBCB" stroke="#263238" stroke-linecap="round" stroke-linejoin="round"/>
<path d="M94.8395 163.696L92.6567 163.628" stroke="#263238" stroke-linecap="round" stroke-linejoin="round"/>
<path d="M94.0166 160.538C97.0743 161.474 100.052 162.614 102.925 163.949L97.3214 163.776" stroke="#263238" stroke-linecap="round" stroke-linejoin="round"/>
<path d="M123.59 164.19C124.218 165.087 124.605 166.105 124.719 167.163C124.719 168.529 124.971 170.358 124.345 169.789C123.719 169.221 123.461 167.274 123.461 167.274L123.59 164.19Z" fill="white" stroke="#263238" stroke-linecap="round" stroke-linejoin="round"/>
<path d="M119.823 162.596C119.823 162.596 122.176 161.434 123.223 162.831C124.27 164.227 123.991 167.015 123.223 168.393C122.454 169.771 121.577 168.454 121.686 167.231C121.795 166.007 119.823 162.596 119.823 162.596Z" fill="white" stroke="#263238" stroke-linecap="round" stroke-linejoin="round"/>
<path d="M118.939 161.113C118.939 161.113 121.299 159.951 122.339 161.347C123.379 162.744 123.101 165.525 122.339 166.909C121.577 168.294 120.693 166.971 120.802 165.748C120.911 164.524 118.939 161.113 118.939 161.113Z" fill="white" stroke="#263238" stroke-linecap="round" stroke-linejoin="round"/>
<path d="M117.857 159.512C117.857 159.512 120.217 158.35 121.257 159.747C122.298 161.143 122.026 163.931 121.257 165.309C120.489 166.687 119.612 165.37 119.721 164.147C119.829 162.923 117.857 159.512 117.857 159.512Z" fill="white" stroke="#263238" stroke-linecap="round" stroke-linejoin="round"/>
<path d="M111.887 103.583C111.926 105.804 111.296 107.992 110.065 109.911C106.583 114.75 103.312 114.188 101.905 118.1C100.497 122.012 98.3959 126.072 100.64 128.334C102.884 130.596 104.72 129.261 104.72 129.261C104.72 129.261 106.155 132.61 102.469 135.96C98.7835 139.31 92.4391 138.006 90.8003 137.449C89.7683 137.088 88.8029 136.586 87.9375 135.96C87.9375 135.96 86.9107 138.568 81.8175 138.568C76.7243 138.568 70.9375 135.404 70.9375 129.632C70.9375 123.86 74.4123 119.96 75.2351 117.723C76.0579 115.486 73.8003 108.607 77.2751 104.331C80.7499 100.054 86.1151 96.9148 90.1951 96.9148C94.2751 96.9148 102.238 98.948 102.272 98.9604C102.809 99.2261 106.25 97.953 107.181 98.0086C110.602 98.1817 111.846 100.734 111.887 103.583Z" fill="#263238" stroke="#263238" stroke-linecap="round" stroke-linejoin="round"/>
<path d="M98.6001 130.052C99.3425 130.143 100.095 130.143 100.837 130.052" stroke="#919191" stroke-linecap="round" stroke-linejoin="round"/>
<path d="M108.936 106.828C108.613 108.484 107.941 110.069 106.957 111.494C103.775 116.036 100.157 117.674 95.8258 122C93.0446 124.799 93.5682 127.592 95.8258 129.057" stroke="#919191" stroke-linecap="round" stroke-linejoin="round"/>
<path d="M108.997 102.001C109.13 102.682 109.196 103.373 109.194 104.065" stroke="#919191" stroke-linecap="round" stroke-linejoin="round"/>
<path d="M104.72 106.333C104.72 106.333 104.04 112.729 101.089 116.443C98.1376 120.158 92.2488 122.005 92.4596 125.936" stroke="#919191" stroke-linecap="round" stroke-linejoin="round"/>
<path d="M132.124 213.402C132.124 213.402 136.367 233.215 139.998 242.843C143.629 252.471 147.261 261.278 148.158 262.106C149.056 262.934 151.49 265.956 151.49 265.956C150.365 266.773 148.99 267.254 147.553 267.334C145.431 267.334 142.711 264.862 140.284 263.478C137.856 262.094 137.564 261.278 132.715 259.628C127.867 257.978 131.811 253.578 133.021 251.371C133.721 250.181 134.134 248.868 134.232 247.521C132.307 241.324 128.896 235.592 124.243 230.736C116.688 223.036 115.171 205.176 115.171 205.176L129.703 200.232L132.124 213.402Z" fill="white" stroke="#263238" stroke-linecap="round" stroke-linejoin="round"/>
<path d="M147.56 261.117L146.683 261.278C146.683 261.278 141.535 254.95 137.605 252.75C136.265 251.909 134.689 251.433 133.063 251.378C131.845 253.578 127.915 257.978 132.757 259.628C137.598 261.278 137.904 262.1 140.325 263.478C142.746 264.856 145.473 267.334 147.594 267.334C149.031 267.254 150.406 266.773 151.531 265.956C151.531 265.956 149.104 262.928 148.199 262.106C147.942 261.802 147.727 261.47 147.56 261.117V261.117Z" fill="#CBCBCB" stroke="#263238" stroke-linecap="round" stroke-linejoin="round"/>
<path d="M145.119 266.55C142.725 265.048 140.563 261.711 136.666 259.628C133.124 257.737 131.301 257.663 130.546 257.805C130.731 258.246 131.029 258.642 131.414 258.958C131.799 259.275 132.262 259.505 132.763 259.628C137.612 261.278 137.911 262.1 140.332 263.478C141.862 264.368 143.548 265.74 145.119 266.55Z" fill="#CBCBCB" stroke="#263238" stroke-linecap="round" stroke-linejoin="round"/>
<path d="M147.56 267.334C147.405 267.329 147.251 267.315 147.098 267.291C147.25 267.317 147.405 267.332 147.56 267.334V267.334Z" fill="#CBCBCB" stroke="#263238" stroke-linecap="round" stroke-linejoin="round"/>
<path d="M105.141 183.546C105.141 183.546 119.693 178.862 121.053 181.952C122.413 185.042 128.642 196.567 126.371 201.301C124.1 206.035 108.133 187.705 105.862 187.31C103.591 186.914 104.876 184.93 105.141 183.546Z" fill="white" stroke="#263238" stroke-linecap="round" stroke-linejoin="round"/>
<path d="M119.401 189.584C119.401 189.584 135.946 188.348 139.121 191.03C142.297 193.712 131.417 225.842 125.521 235.934C116.28 251.718 119.075 255.852 119.075 255.852C119.075 255.852 119.755 258.324 124.29 262.242C128.826 266.16 130.186 266.772 128.595 267.39C127.004 268.008 120.21 267.39 119.53 266.976C118.85 266.562 113.866 262.86 109.33 261.624C104.795 260.388 105.475 259.56 107.515 255.852C109.555 252.144 109.33 255.234 111.595 248.85C114.309 240.983 116.453 232.963 118.014 224.841C119.218 218.222 121.054 210.954 120.537 204.224L119.401 189.584Z" fill="white" stroke="#263238" stroke-linecap="round" stroke-linejoin="round"/>
<path d="M131.519 199.645C129.787 195.846 126.806 192.626 122.985 190.424C115.75 186.228 109.616 182.31 109.616 182.31L97.6754 186.939C97.6754 186.939 100.586 191.426 85.6258 193.694C74.1066 195.436 63.5326 192.909 57.8274 189.862C57.0318 193.453 56.2022 197.445 55.7874 200.368C54.9918 206.443 61.9958 212.518 66.2934 214.403C70.591 216.288 105.217 220.187 114.539 214.743C131.519 204.873 131.519 199.645 131.519 199.645Z" fill="#263238" stroke="#263238" stroke-linecap="round" stroke-linejoin="round"/>
<path d="M96.3221 190.344C94.7241 191.537 91.6097 192.816 85.6257 193.7C74.1065 195.443 63.5325 192.915 57.8273 189.868C57.6233 190.789 57.4193 191.722 57.2153 192.68C61.1253 194.818 69.3397 198.44 78.6013 197.408C89.6513 196.178 94.5609 193.434 96.3221 190.344Z" fill="#CBCBCB" stroke="#263238" stroke-linecap="round" stroke-linejoin="round"/>
<path d="M87.4957 203.582C86.9653 204.2 86.4145 204.818 85.8569 205.436" stroke="white" stroke-linecap="round" stroke-linejoin="round"/>
<path d="M95.8254 191.852C93.7327 195.349 91.3978 198.722 88.835 201.95" stroke="white" stroke-linecap="round" stroke-linejoin="round"/>
<path d="M90.8414 195.764C90.8414 195.764 86.7614 200.708 82.457 203.594" stroke="white" stroke-linecap="round" stroke-linejoin="round"/>
<path d="M124.29 262.23C119.755 258.324 119.075 255.852 119.075 255.852C118.923 255.724 118.802 255.568 118.721 255.395C118.415 255.685 117.49 256.235 115.226 255.444C113.261 254.758 111.398 253.59 109.432 252.805C108.963 253.565 108.508 254.041 107.515 255.852C105.475 259.56 104.795 260.388 109.33 261.624C113.866 262.86 118.85 266.568 119.53 266.976C120.21 267.384 127.01 268.008 128.595 267.39C130.179 266.772 128.826 266.142 124.29 262.23Z" fill="#CBCBCB" stroke="#263238" stroke-linecap="round" stroke-linejoin="round"/>
<path d="M128.466 201.74L136.177 197.414" stroke="#263238" stroke-linecap="round" stroke-linejoin="round"/>
<path d="M36.3462 162.571C36.3462 162.571 60.9078 159.778 76.6022 163.807L78.989 218.074H42.1602C42.1602 218.074 44.5334 188.923 36.3462 162.571Z" fill="#919191" stroke="#263238" stroke-linecap="round" stroke-linejoin="round"/>
<path d="M76.6022 163.807C60.9078 159.778 36.3462 162.571 36.3462 162.571C38.9746 171.354 40.7203 180.335 41.5618 189.405C55.2766 195.629 67.8379 203.761 78.7918 213.507L76.6022 163.807Z" fill="#757575" stroke="#263238" stroke-linecap="round" stroke-linejoin="round"/>
<path d="M122.917 268.83C122.639 268.831 122.367 268.755 122.139 268.611C121.91 268.467 121.736 268.263 121.638 268.027C116.198 254.703 114.838 220.113 114.757 218.649C114.744 218.321 114.875 218.002 115.121 217.762C115.367 217.522 115.708 217.381 116.069 217.369C116.43 217.358 116.781 217.477 117.045 217.701C117.309 217.925 117.464 218.234 117.477 218.562C117.477 218.921 118.891 254.215 124.188 267.162C124.314 267.469 124.299 267.809 124.149 268.107C123.998 268.405 123.724 268.636 123.386 268.75C123.237 268.804 123.077 268.831 122.917 268.83Z" fill="white" stroke="#263238" stroke-linecap="round" stroke-linejoin="round"/>
<path d="M93.3029 268.83C93.0262 268.83 92.7562 268.753 92.529 268.609C92.3018 268.466 92.1282 268.262 92.0313 268.027C86.5913 254.703 85.2313 220.113 85.1429 218.649C85.1303 218.321 85.2615 218.002 85.5076 217.762C85.7537 217.522 86.0946 217.381 86.4553 217.369C86.816 217.358 87.167 217.477 87.4309 217.701C87.6949 217.925 87.8503 218.234 87.8629 218.562C87.8629 218.921 89.2773 254.215 94.5813 267.162C94.7066 267.469 94.6925 267.809 94.542 268.107C94.3915 268.405 94.117 268.636 93.7789 268.75C93.6273 268.804 93.4658 268.831 93.3029 268.83V268.83Z" fill="white" stroke="#263238" stroke-linecap="round" stroke-linejoin="round"/>
<path d="M122.55 218.049H41.5142V215.577H119.843C120.565 215.577 121.257 215.838 121.767 216.301C122.277 216.765 122.563 217.394 122.563 218.049H122.55Z" fill="#919191" stroke="#263238" stroke-linecap="round" stroke-linejoin="round"/>
<path d="M122.543 217.449H41.5142V219.903H122.543V217.449Z" fill="white" stroke="#263238" stroke-linecap="round" stroke-linejoin="round"/>
<path d="M75.9969 268.83C75.7922 268.834 75.5892 268.796 75.4029 268.719C75.2167 268.641 75.0521 268.527 74.9214 268.384C74.7906 268.24 74.6971 268.072 74.6479 267.892C74.5986 267.711 74.5948 267.523 74.6369 267.341C82.3276 234.228 75.3169 164.598 75.2217 163.9C75.2051 163.737 75.224 163.574 75.277 163.418C75.3301 163.262 75.4164 163.118 75.531 162.992C75.6456 162.867 75.7863 162.763 75.945 162.687C76.1037 162.611 76.2773 162.564 76.4559 162.549C76.8165 162.519 77.1757 162.62 77.4544 162.831C77.733 163.041 77.9083 163.343 77.9417 163.671C78.0165 164.376 85.0816 234.37 77.3093 267.847C77.2459 268.122 77.0814 268.369 76.8429 268.548C76.6043 268.727 76.3059 268.826 75.9969 268.83Z" fill="white" stroke="#263238" stroke-linecap="round" stroke-linejoin="round"/>
<path d="M33.8368 267.928C33.7101 267.929 33.5839 267.912 33.4628 267.878C33.1171 267.789 32.8243 267.579 32.6485 267.294C32.4727 267.009 32.428 266.673 32.5244 266.358C50.2044 209.317 35.1968 163.387 35.0472 162.93C34.9615 162.622 35.0092 162.296 35.1805 162.02C35.3518 161.743 35.6335 161.537 35.9673 161.444C36.3011 161.351 36.6615 161.379 36.9737 161.521C37.286 161.662 37.5263 161.908 37.6448 162.206C37.8012 162.67 53.0672 209.255 35.1424 267.025C35.0625 267.284 34.8917 267.513 34.6561 267.676C34.4205 267.838 34.1328 267.927 33.8368 267.928V267.928Z" fill="white" stroke="#263238" stroke-linecap="round" stroke-linejoin="round"/>
<path d="M282.458 166.026C282.458 166.026 274.101 161.805 273.482 171.371C272.863 180.938 271.32 243.115 271.32 243.115" stroke="#263238" stroke-width="2" stroke-linecap="round" stroke-linejoin="round"/>
<path d="M269.144 172.212C269.144 172.212 275.944 185.999 272.864 242.274" stroke="#263238" stroke-width="2" stroke-linecap="round" stroke-linejoin="round"/>
<path d="M275.842 167.954C275.842 167.954 272.639 169.808 270.823 167.682C269.008 165.556 272.054 161.65 269.368 159.982C266.682 158.313 262.038 160.859 262.038 160.859C262.038 160.859 265.608 161.811 265.492 163.585C265.377 165.358 263.656 166.026 263.452 165.253C263.248 164.481 261.514 160.575 258.617 162.2C257.78 162.649 257.052 163.247 256.477 163.959C255.902 164.67 255.492 165.481 255.272 166.341C255.272 166.341 262.024 165.686 262.432 167.991C262.84 170.296 259.665 167.589 256.877 167.441C254.089 167.293 251.545 167.663 251.729 169.196C251.791 170.552 251.702 171.91 251.464 173.25C252.99 172.098 254.92 171.48 256.904 171.507C259.971 171.674 259.855 173.448 257.067 173.3C254.279 173.151 251.885 175.561 251.885 175.561C251.885 175.561 254.429 179.51 257.659 181.463C260.889 183.416 262.051 182.699 262.419 181.21C262.786 179.721 261.929 175.846 263.881 175.951C265.832 176.056 260.651 182.638 263.139 183.027C265.628 183.416 267.634 182.761 268.287 181.272L268.967 179.782C268.967 179.782 268.097 175.92 268.477 174.418C268.858 172.916 269.314 174.461 269.756 176.272C270.198 178.083 270.477 182.409 271.327 182.199C272.177 181.989 274.903 178.837 275.543 177.595C276.182 176.353 271.952 172.577 272 171.816C272.047 171.056 275.311 172.502 275.821 173.293C276.192 173.894 276.526 174.513 276.821 175.147C276.821 175.147 278.861 173.986 278.807 170.426C278.752 166.866 275.842 167.954 275.842 167.954Z" fill="#CBCBCB"/>
<path opacity="0.3" d="M275.842 167.954C275.842 167.954 272.639 169.808 270.823 167.682C269.008 165.556 272.054 161.65 269.368 159.982C266.682 158.313 262.038 160.859 262.038 160.859C262.038 160.859 265.608 161.811 265.492 163.585C265.377 165.358 263.656 166.026 263.452 165.253C263.248 164.481 261.514 160.575 258.617 162.2C257.78 162.649 257.052 163.247 256.477 163.959C255.902 164.67 255.492 165.481 255.272 166.341C255.272 166.341 262.024 165.686 262.432 167.991C262.84 170.296 259.665 167.589 256.877 167.441C254.089 167.293 251.545 167.663 251.729 169.196C251.791 170.552 251.702 171.91 251.464 173.25C252.99 172.098 254.92 171.48 256.904 171.507C259.971 171.674 259.855 173.448 257.067 173.3C254.279 173.151 251.885 175.561 251.885 175.561C251.885 175.561 254.429 179.51 257.659 181.463C260.889 183.416 262.051 182.699 262.419 181.21C262.786 179.721 261.929 175.846 263.881 175.951C265.832 176.056 260.651 182.638 263.139 183.027C265.628 183.416 267.634 182.761 268.287 181.272L268.967 179.782C268.967 179.782 268.097 175.92 268.477 174.418C268.858 172.916 269.314 174.461 269.756 176.272C270.198 178.083 270.477 182.409 271.327 182.199C272.177 181.989 274.903 178.837 275.543 177.595C276.182 176.353 271.952 172.577 272 171.816C272.047 171.056 275.311 172.502 275.821 173.293C276.192 173.894 276.526 174.513 276.821 175.147C276.821 175.147 278.861 173.986 278.807 170.426C278.752 166.866 275.842 167.954 275.842 167.954Z" fill="#263238"/>
<path d="M259.631 176.303C261.718 173.961 264.785 170.79 267.362 169.276" stroke="#263238" stroke-linecap="round" stroke-linejoin="round"/>
<path d="M257.217 179.152C257.217 179.152 257.747 178.478 258.618 177.465" stroke="#263238" stroke-linecap="round" stroke-linejoin="round"/>
<path d="M268.722 169.857C268.722 169.857 271.823 173.837 272.394 177.935" stroke="#263238" stroke-linecap="round" stroke-linejoin="round"/>
<path d="M265.2 172.212C265.2 172.212 266.071 171.748 265.744 176.816" stroke="#263238" stroke-linecap="round" stroke-linejoin="round"/>
<path d="M267.478 167.478C267.478 167.478 269.253 166.05 268.314 163.201" stroke="#263238" stroke-linecap="round" stroke-linejoin="round"/>
<path d="M265.085 169.919L263.82 167.818" stroke="#263238" stroke-linecap="round" stroke-linejoin="round"/>
<path d="M262.426 172.064C262.426 172.064 258.413 169.307 255.904 169.171" stroke="#263238" stroke-linecap="round" stroke-linejoin="round"/>
<path d="M287.239 160.445C287.239 160.445 287.109 164.623 283.519 164.827C279.929 165.031 277.712 159.592 274.04 160.902C270.368 162.213 270.014 168.17 270.014 168.17C270.014 168.17 273.496 165.568 275.373 166.879C277.249 168.189 276.814 170.216 275.801 169.894C274.788 169.573 269.334 168.467 269.144 172.212C269.068 173.28 269.23 174.35 269.622 175.359C270.013 176.368 270.626 177.295 271.422 178.083C271.422 178.083 275.305 171.489 278.133 172.688C280.962 173.887 275.801 174.937 273.734 177.372C271.667 179.807 270.334 182.372 272.163 183.255C273.699 184.12 275.135 185.124 276.447 186.253C276.447 186.253 275.957 182.804 278.229 180.128C280.5 177.452 282.37 178.763 280.309 181.198C278.249 183.632 279.269 187.458 279.269 187.458C279.269 187.458 285.348 187.835 289.7 186.222C294.052 184.609 294.079 183.076 292.679 181.71C291.278 180.345 286.436 178.503 287.878 176.766C289.319 175.03 293.046 184.263 295.174 182.261C297.303 180.258 297.942 177.99 296.745 176.377L295.548 174.77C295.548 174.77 290.707 172.916 289.306 171.557C287.905 170.197 289.925 170.828 292.216 171.656C294.508 172.484 299.465 175.184 299.819 174.264C300.172 173.343 298.547 168.702 297.622 167.293C296.697 165.884 289.639 167.138 288.837 166.576C288.034 166.013 291.849 164.03 293.066 164.104C293.979 164.173 294.887 164.286 295.786 164.444C295.786 164.444 295.895 161.799 291.937 159.419C287.98 157.04 287.239 160.445 287.239 160.445Z" fill="#CBCBCB"/>
<path opacity="0.2" d="M287.239 160.445C287.239 160.445 287.109 164.623 283.519 164.827C279.929 165.031 277.712 159.592 274.04 160.902C270.368 162.213 270.014 168.17 270.014 168.17C270.014 168.17 273.496 165.568 275.373 166.879C277.249 168.189 276.814 170.216 275.801 169.894C274.788 169.573 269.334 168.467 269.144 172.212C269.068 173.28 269.23 174.35 269.622 175.359C270.013 176.368 270.626 177.295 271.422 178.083C271.422 178.083 275.305 171.489 278.133 172.688C280.962 173.887 275.801 174.937 273.734 177.372C271.667 179.807 270.334 182.372 272.163 183.255C273.699 184.12 275.135 185.124 276.447 186.253C276.447 186.253 275.957 182.804 278.229 180.128C280.5 177.452 282.37 178.763 280.309 181.198C278.249 183.632 279.269 187.458 279.269 187.458C279.269 187.458 285.348 187.835 289.7 186.222C294.052 184.609 294.079 183.076 292.679 181.71C291.278 180.345 286.436 178.503 287.878 176.766C289.319 175.03 293.046 184.263 295.174 182.261C297.303 180.258 297.942 177.99 296.745 176.377L295.548 174.77C295.548 174.77 290.707 172.916 289.306 171.557C287.905 170.197 289.925 170.828 292.216 171.656C294.508 172.484 299.465 175.184 299.819 174.264C300.172 173.343 298.547 168.702 297.622 167.293C296.697 165.884 289.639 167.138 288.837 166.576C288.034 166.013 291.849 164.03 293.066 164.104C293.979 164.173 294.887 164.286 295.786 164.444C295.786 164.444 295.895 161.799 291.937 159.419C287.98 157.04 287.239 160.445 287.239 160.445Z" fill="#263238"/>
<path d="M285.389 180.882C284.24 177.366 282.825 172.422 282.921 169.06" stroke="#263238" stroke-linecap="round" stroke-linejoin="round"/>
<path d="M286.879 185.029C286.879 185.029 286.498 184.077 285.974 182.6" stroke="#263238" stroke-linecap="round" stroke-linejoin="round"/>
<path d="M284.485 168.22C284.485 168.22 290.979 168.108 295.882 170.383" stroke="#263238" stroke-linecap="round" stroke-linejoin="round"/>
<path d="M284.689 173.04C284.689 173.04 284.771 171.934 290.129 175.685" stroke="#263238" stroke-linecap="round" stroke-linejoin="round"/>
<path d="M281.044 167.744C281.044 167.744 280.677 165.16 276.903 164.073" stroke="#263238" stroke-linecap="round" stroke-linejoin="round"/>
<path d="M282.071 171.569L278.895 171.285" stroke="#263238" stroke-linecap="round" stroke-linejoin="round"/>
<path d="M282.622 175.45C282.622 175.45 276.849 177.224 274.992 179.418" stroke="#263238" stroke-linecap="round" stroke-linejoin="round"/>
<path d="M248.717 188.255C248.717 188.255 266.982 199.225 266.676 241.712" stroke="#263238" stroke-width="2" stroke-linecap="round" stroke-linejoin="round"/>
<path d="M271.239 185.357C271.239 185.357 270.654 190.165 266.479 190.091C262.303 190.016 260.359 183.552 255.952 184.751C251.546 185.95 250.546 192.785 250.546 192.785C250.546 192.785 254.844 190.078 256.87 191.759C258.897 193.44 258.183 195.733 257.047 195.276C255.911 194.818 249.73 193.069 249.125 197.377C248.928 198.603 249.008 199.852 249.358 201.05C249.709 202.247 250.324 203.367 251.165 204.342C251.165 204.342 256.333 197.068 259.468 198.699C262.603 200.331 256.544 201.091 253.905 203.724C251.267 206.356 249.478 209.199 251.478 210.373C253.163 211.504 254.717 212.787 256.115 214.205C256.115 214.205 255.905 210.188 258.801 207.29C261.698 204.391 263.731 206.054 261.093 208.705C258.455 211.356 259.243 215.837 259.243 215.837C259.243 215.837 266.227 216.794 271.415 215.311C276.604 213.828 276.787 212.061 275.312 210.367C273.836 208.674 268.444 206.128 270.287 204.286C272.129 202.444 275.468 213.383 278.134 211.251C280.799 209.119 281.765 206.567 280.555 204.601L279.344 202.636C279.344 202.636 273.952 200.096 272.476 198.397C271.001 196.697 273.265 197.612 275.822 198.761C278.379 199.911 283.825 203.452 284.322 202.426C284.818 201.4 283.431 195.912 282.513 194.188C281.595 192.464 273.319 193.323 272.449 192.606C271.579 191.889 276.196 189.93 277.59 190.134C278.628 190.291 279.656 190.497 280.67 190.752C280.67 190.752 281.065 187.711 276.747 184.621C272.429 181.531 271.239 185.357 271.239 185.357Z" fill="#CBCBCB"/>
<path opacity="0.3" d="M271.239 185.357C271.239 185.357 270.654 190.165 266.479 190.091C262.303 190.016 260.359 183.552 255.952 184.751C251.546 185.95 250.546 192.785 250.546 192.785C250.546 192.785 254.844 190.078 256.87 191.759C258.897 193.44 258.183 195.733 257.047 195.276C255.911 194.818 249.73 193.069 249.125 197.377C248.928 198.603 249.008 199.852 249.358 201.05C249.709 202.247 250.324 203.367 251.165 204.342C251.165 204.342 256.333 197.068 259.468 198.699C262.603 200.331 256.544 201.091 253.905 203.724C251.267 206.356 249.478 209.199 251.478 210.373C253.163 211.504 254.717 212.787 256.115 214.205C256.115 214.205 255.905 210.188 258.801 207.29C261.698 204.391 263.731 206.054 261.093 208.705C258.455 211.356 259.243 215.837 259.243 215.837C259.243 215.837 266.227 216.794 271.415 215.311C276.604 213.828 276.787 212.061 275.312 210.367C273.836 208.674 268.444 206.128 270.287 204.286C272.129 202.444 275.468 213.383 278.134 211.251C280.799 209.119 281.765 206.567 280.555 204.601L279.344 202.636C279.344 202.636 273.952 200.096 272.476 198.397C271.001 196.697 273.265 197.612 275.822 198.761C278.379 199.911 283.825 203.452 284.322 202.426C284.818 201.4 283.431 195.912 282.513 194.188C281.595 192.464 273.319 193.323 272.449 192.606C271.579 191.889 276.196 189.93 277.59 190.134C278.628 190.291 279.656 190.497 280.67 190.752C280.67 190.752 281.065 187.711 276.747 184.621C272.429 181.531 271.239 185.357 271.239 185.357Z" fill="#263238"/>
<path d="M266.982 208.779C266.003 204.651 264.908 198.811 265.357 194.924" stroke="#263238" stroke-linecap="round" stroke-linejoin="round"/>
<path d="M268.274 213.692C268.274 213.692 267.934 212.561 267.478 210.812" stroke="#263238" stroke-linecap="round" stroke-linejoin="round"/>
<path d="M267.24 194.089C267.24 194.089 274.72 194.521 280.16 197.562" stroke="#263238" stroke-linecap="round" stroke-linejoin="round"/>
<path d="M266.988 199.614C266.988 199.614 267.199 198.347 272.993 203.136" stroke="#263238" stroke-linecap="round" stroke-linejoin="round"/>
<path d="M263.33 193.249C263.33 193.249 263.173 190.233 258.937 188.651" stroke="#263238" stroke-linecap="round" stroke-linejoin="round"/>
<path d="M264.119 197.748L260.488 197.148" stroke="#263238" stroke-linecap="round" stroke-linejoin="round"/>
<path d="M264.357 202.271C264.357 202.271 257.509 203.829 255.136 206.196" stroke="#263238" stroke-linecap="round" stroke-linejoin="round"/>
<path d="M255.836 221.732C255.836 221.732 267.6 229.89 268.838 241.99L266.363 201.468" stroke="#263238" stroke-width="2" stroke-linecap="round" stroke-linejoin="round"/>
<path d="M284.315 215.824C268.838 213.29 268.838 241.99 268.838 241.99" stroke="#263238" stroke-width="2" stroke-linecap="round" stroke-linejoin="round"/>
<path d="M270.694 241.712C270.694 241.712 261.718 182.347 287.694 182.347" stroke="#263238" stroke-width="2" stroke-linecap="round" stroke-linejoin="round"/>
<path d="M278.419 214.118C276.305 211.955 271.81 211.955 269.171 217.48C266.533 223.005 268.906 222.047 268.906 222.047C268.906 222.047 273.925 220.601 277.1 219.643C280.276 218.685 284.499 216.281 284.764 217.721C285.029 219.161 282.649 220.601 279.739 221.083C276.828 221.565 269.171 223.487 269.96 224.952C270.749 226.417 272.605 230.718 272.605 230.718C274.863 228.975 277.246 227.37 279.739 225.916C283.179 223.994 285.294 224.711 283.445 226.874C281.595 229.037 276.305 231.435 277.365 234.321C278.426 237.207 284.764 240.804 284.764 240.804C284.764 240.804 285.559 234.803 287.409 232.881C289.259 230.959 289.259 233.122 288.728 236.484C288.463 237.916 288.286 239.36 288.198 240.81L295.596 243.214C296.806 241.54 298.13 239.936 299.561 238.412L300.921 237.176C300.921 237.176 295.107 232.615 294.841 229.76C294.576 226.905 298.806 229.76 300.125 230.242C301.444 230.724 303.559 234.086 303.559 234.086C303.559 234.086 304.885 228.561 305.15 226.639L305.415 224.717C305.415 224.717 299.86 222.795 297.745 222.795C295.63 222.795 294.576 224.235 294.576 222.319C294.576 220.404 296.691 219.192 299.071 219.433C301.224 219.76 303.346 220.242 305.415 220.873C305.415 220.873 307 219.674 306.469 216.071C305.939 212.468 304.62 212.468 301.451 213.426C298.282 214.384 296.161 216.553 293.781 216.553C291.401 216.553 292.727 213.908 294.311 213.191C295.895 212.475 299.86 211.028 300.655 210.787C301.451 210.546 296.426 207.185 293.781 206.702C291.135 206.22 287.715 207.938 287.967 210.305C288.463 215.317 280.534 216.3 278.419 214.118Z" fill="#CBCBCB"/>
<path d="M295.433 238.851C295.514 239.572 295.569 240.295 295.596 241.02" stroke="#263238" stroke-linecap="round" stroke-linejoin="round"/>
<path d="M290.122 221.609C292.452 226.365 294.13 231.362 295.12 236.49" stroke="#263238" stroke-linecap="round" stroke-linejoin="round"/>
<path d="M289.17 219.68C287.864 217.122 286.878 215.558 286.878 215.558C288.321 214.941 289.52 213.936 290.312 212.679C290.931 211.54 291.837 210.551 292.958 209.792" stroke="#263238" stroke-linecap="round" stroke-linejoin="round"/>
<path d="M277.63 223.716C277.63 223.716 287.15 220.113 287.15 220.83" stroke="#263238" stroke-linecap="round" stroke-linejoin="round"/>
<path d="M292.4 219.161C292.4 219.161 296.63 217.239 300.329 217.239" stroke="#263238" stroke-linecap="round" stroke-linejoin="round"/>
<path d="M290.843 224.952C289.008 226.322 287.325 227.852 285.817 229.519C284.275 231.172 283.027 233.034 282.118 235.038" stroke="#263238" stroke-linecap="round" stroke-linejoin="round"/>
<path d="M293.76 225.891C293.76 225.891 299.316 224.445 302.219 226.849" stroke="#263238" stroke-linecap="round" stroke-linejoin="round"/>
<path d="M303.804 193.434C300.927 191.889 297.745 191.852 296.181 190.22C294.617 188.589 297.684 187.748 299.322 188.366C300.961 188.984 304.762 190.758 305.476 191.141C306.19 191.524 305.701 185.882 304.368 183.725C303.035 181.568 299.384 180.357 297.568 182.1C293.726 185.765 287.728 180.957 288.136 178.089C288.544 175.222 285.6 172.138 279.296 173.942C272.993 175.747 275.332 176.754 275.332 176.754C275.332 176.754 279.82 179.257 282.703 180.802C285.586 182.347 290.346 183.676 289.32 184.801C288.293 185.925 285.539 185.239 283.234 183.565C280.928 181.89 274.312 177.885 273.632 179.375C272.952 180.864 270.572 184.967 270.572 184.967C273.501 185.375 276.398 185.96 279.242 186.716C283.091 187.816 283.88 189.738 280.874 189.887C277.868 190.035 272.401 187.983 270.674 190.597C268.947 193.212 270.137 199.923 270.137 199.923C270.137 199.923 275.645 196.536 278.453 196.543C281.262 196.549 279.466 197.97 276.325 199.812C274.962 200.568 273.648 201.393 272.388 202.284L275.244 208.94C277.428 208.671 279.629 208.526 281.833 208.507L283.696 208.631C283.696 208.631 283.696 201.647 285.899 199.577C288.102 197.507 288.497 202.296 288.966 203.52C289.435 204.743 288.028 208.396 288.028 208.396C288.028 208.396 293.468 205.683 295.249 204.601L297.024 203.526C297.024 203.526 294.984 198.452 293.59 197.006C292.196 195.56 290.319 195.77 291.91 194.534C293.502 193.298 295.895 193.916 297.255 195.733C298.395 197.424 299.384 199.195 300.213 201.029C300.213 201.029 302.253 201.332 304.898 198.607C307.544 195.881 306.68 194.979 303.804 193.434ZM278.8 201.122C276.685 200.158 281.704 198.236 281.704 198.236C283.56 198.001 280.908 202.086 278.8 201.122ZM282.356 192.155C281.459 191.747 284.158 190.919 284.158 190.919C288.062 191.58 283.254 192.563 282.35 192.155H282.356Z" fill="#CBCBCB"/>
<path d="M278.732 206.016C278.188 206.542 277.617 207.055 277.039 207.549" stroke="#263238" stroke-linecap="round" stroke-linejoin="round"/>
<path d="M289.578 191.067C287.149 195.78 284.091 200.203 280.473 204.236" stroke="#263238" stroke-linecap="round" stroke-linejoin="round"/>
<path d="M290.557 189.151C291.829 186.574 292.475 184.875 292.475 184.875C293.936 185.458 295.559 185.621 297.126 185.344C298.475 185.02 299.89 184.993 301.254 185.264" stroke="#263238" stroke-linecap="round" stroke-linejoin="round"/>
<path d="M288.259 188.521C288.857 188.045 279.629 183.88 279.629 183.88" stroke="#263238" stroke-linecap="round" stroke-linejoin="round"/>
<path d="M293.121 191.042C293.121 191.042 297.493 192.686 299.921 195.226" stroke="#263238" stroke-linecap="round" stroke-linejoin="round"/>
<path d="M287.293 193.737C284.953 193.376 282.58 193.223 280.208 193.28C277.821 193.307 275.453 193.672 273.19 194.361" stroke="#263238" stroke-linecap="round" stroke-linejoin="round"/>
<path d="M288.401 196.363C288.401 196.363 293.236 199.225 293.161 202.797" stroke="#263238" stroke-linecap="round" stroke-linejoin="round"/>
<path d="M262.731 226.713C260.419 225.477 257.856 225.447 256.611 224.13C255.367 222.814 257.815 222.153 259.134 222.647C260.453 223.141 263.513 224.575 264.091 224.884C264.669 225.193 264.268 220.645 263.194 218.933C262.119 217.221 259.182 216.226 257.72 217.623C254.626 220.577 249.798 216.702 250.131 214.397C250.464 212.092 248.091 209.607 242.998 211.06C237.905 212.512 239.809 213.321 239.809 213.321C239.809 213.321 243.419 215.336 245.738 216.578C248.057 217.82 251.892 218.896 251.063 219.798C250.233 220.7 248.023 220.156 246.167 218.803C244.31 217.45 238.986 214.23 238.442 215.429C237.898 216.628 235.98 219.928 235.98 219.928C238.337 220.258 240.668 220.729 242.957 221.337C246.051 222.221 246.683 223.766 244.263 223.883C241.842 224 237.463 222.35 236.103 224.458C234.743 226.565 235.667 231.966 235.667 231.966C235.667 231.966 240.101 229.235 242.359 229.241C244.616 229.247 243.175 230.391 240.652 231.874C239.555 232.482 238.497 233.147 237.483 233.864L239.775 239.216C241.533 239.001 243.305 238.888 245.079 238.876L246.581 238.968C246.581 238.968 246.581 233.351 248.356 231.682C250.131 230.014 250.444 233.87 250.818 234.859C251.192 235.848 250.063 238.783 250.063 238.783C250.063 238.783 254.456 236.595 255.877 235.73L257.305 234.859C257.305 234.859 255.659 230.78 254.544 229.612C253.429 228.444 251.906 228.623 253.184 227.61C254.463 226.596 256.387 227.128 257.482 228.567C258.4 229.929 259.198 231.355 259.869 232.832C259.869 232.832 261.507 233.073 263.636 230.885C265.764 228.697 265.05 227.962 262.731 226.713ZM242.603 232.893C240.903 232.121 244.943 230.576 244.943 230.576C246.432 230.391 244.303 233.678 242.603 232.9V232.893ZM245.48 225.688C244.752 225.354 246.928 224.699 246.928 224.699C250.063 225.249 246.194 226.015 245.48 225.688Z" fill="#CBCBCB"/>
<path d="M242.563 236.842C242.121 237.263 241.665 237.677 241.203 238.078" stroke="#263238" stroke-linecap="round" stroke-linejoin="round"/>
<path d="M251.287 224.81C249.334 228.603 246.874 232.162 243.963 235.409" stroke="#263238" stroke-linecap="round" stroke-linejoin="round"/>
<path d="M252.076 223.265C253.096 221.194 253.62 219.829 253.62 219.829C254.795 220.296 256.1 220.428 257.36 220.206C258.445 219.945 259.582 219.923 260.678 220.144" stroke="#263238" stroke-linecap="round" stroke-linejoin="round"/>
<path d="M243.277 219.025C243.277 219.025 250.709 222.381 250.226 222.733" stroke="#263238" stroke-linecap="round" stroke-linejoin="round"/>
<path d="M254.136 224.791C254.136 224.791 257.652 226.114 259.576 228.159" stroke="#263238" stroke-linecap="round" stroke-linejoin="round"/>
<path d="M249.444 226.96C247.563 226.671 245.654 226.549 243.746 226.596C241.826 226.612 239.921 226.907 238.102 227.467" stroke="#263238" stroke-linecap="round" stroke-linejoin="round"/>
<path d="M250.342 229.074C250.342 229.074 254.231 231.379 254.157 234.247" stroke="#263238" stroke-linecap="round" stroke-linejoin="round"/>
<path d="M253.293 187.05C253.293 187.05 250.383 188.972 248.533 187.05C246.684 185.128 249.329 181.284 246.684 179.844C244.038 178.404 239.816 181.043 239.816 181.043C239.816 181.043 243.25 181.766 243.25 183.447C243.25 185.128 241.665 185.851 241.4 185.128C241.135 184.405 239.285 180.802 236.64 182.489C235.878 182.956 235.228 183.557 234.729 184.258C234.23 184.96 233.892 185.745 233.736 186.568C233.736 186.568 240.074 185.61 240.604 187.773C241.135 189.936 237.966 187.532 235.321 187.532C232.676 187.532 230.296 188.014 230.561 189.454C230.705 190.732 230.705 192.02 230.561 193.298C231.93 192.133 233.712 191.451 235.586 191.376C238.49 191.376 238.49 193.057 235.851 193.057C233.213 193.057 231.091 195.461 231.091 195.461C231.091 195.461 233.736 199.064 236.905 200.745C240.074 202.426 241.135 201.703 241.4 200.263C241.665 198.823 240.604 195.22 242.454 195.22C244.304 195.22 239.816 201.703 242.189 201.944C244.562 202.185 246.418 201.462 246.949 200.022L247.479 198.582C247.479 198.582 246.418 194.979 246.684 193.539C246.949 192.099 247.479 193.539 248.003 195.22C248.526 196.901 249.064 200.98 249.859 200.745C250.655 200.51 253.028 197.377 253.558 196.178C254.089 194.979 249.859 191.617 249.859 190.894C249.859 190.171 253.028 191.376 253.558 192.093C254.089 192.81 254.612 193.774 254.612 193.774C254.612 193.774 256.462 192.575 256.197 189.213C255.932 185.851 253.293 187.05 253.293 187.05Z" fill="#CBCBCB"/>
<path d="M238.483 195.764C240.312 193.446 243.025 190.294 245.364 188.731" stroke="#263238" stroke-linecap="round" stroke-linejoin="round"/>
<path d="M236.375 198.582C236.375 198.582 236.844 197.914 237.599 196.913" stroke="#263238" stroke-linecap="round" stroke-linejoin="round"/>
<path d="M246.684 189.213C246.684 189.213 249.859 192.816 250.648 196.66" stroke="#263238" stroke-linecap="round" stroke-linejoin="round"/>
<path d="M243.515 191.617C243.515 191.617 244.303 191.135 244.303 195.943" stroke="#263238" stroke-linecap="round" stroke-linejoin="round"/>
<path d="M245.364 187.05C245.364 187.05 246.949 185.61 245.895 182.965" stroke="#263238" stroke-linecap="round" stroke-linejoin="round"/>
<path d="M243.249 189.454L241.93 187.532" stroke="#263238" stroke-linecap="round" stroke-linejoin="round"/>
<path d="M240.87 191.617C240.87 191.617 236.905 189.213 234.525 189.213" stroke="#263238" stroke-linecap="round" stroke-linejoin="round"/>
<path d="M279.983 240.865H259.549V267.594H279.983V240.865Z" fill="#263238" stroke="#263238" stroke-width="2" stroke-linecap="round" stroke-linejoin="round"/>
</svg>
