<svg width="311" height="283" viewBox="0 0 311 283" fill="none" xmlns="http://www.w3.org/2000/svg">
<path d="M249.857 245.791C259.809 239.402 267.959 230.961 273.643 221.159C309.196 160.546 301.166 71.1687 232.696 32.8335C201.049 15.1177 155.5 3.90528 121.29 22.1022C93.5486 36.8578 76.5432 64.6427 62.4735 89.9203C53.6349 105.842 46.3513 122.929 35.4538 137.804C21.322 157.093 5.76577 182.858 21.4713 205.271C42.8743 235.801 83.2981 249.742 119.953 258.922C159.723 268.878 204.445 270.293 241.18 250.868C244.154 249.295 247.046 247.602 249.857 245.791Z" fill="#C8C8C8"/>
<path opacity="0.7" d="M249.857 245.791C259.809 239.402 267.959 230.961 273.643 221.159C309.196 160.546 301.166 71.1687 232.696 32.8335C201.049 15.1177 155.5 3.90528 121.29 22.1022C93.5486 36.8578 76.5432 64.6427 62.4735 89.9203C53.6349 105.842 46.3513 122.929 35.4538 137.804C21.322 157.093 5.76577 182.858 21.4713 205.271C42.8743 235.801 83.2981 249.742 119.953 258.922C159.723 268.878 204.445 270.293 241.18 250.868C244.154 249.295 247.046 247.602 249.857 245.791Z" fill="white"/>
<g opacity="0.3">
<path opacity="0.3" d="M281.144 45.5459H217.078V122.109H281.144V45.5459Z" stroke="black" stroke-miterlimit="10"/>
<path opacity="0.3" d="M269.388 59.594H228.834V108.061H269.388V59.594Z" stroke="black" stroke-miterlimit="10"/>
</g>
<path d="M202.069 36.9653H32.4497V174.356H202.069V36.9653Z" fill="#263238" stroke="#263238" stroke-miterlimit="10"/>
<path d="M198.853 33.6204H29.2339V171.011H198.853V33.6204Z" fill="white" stroke="#263238" stroke-linecap="round" stroke-linejoin="round"/>
<path d="M165.825 89.0657H174.259V81.3907H165.825V89.0657Z" fill="white" stroke="#263238" stroke-linecap="round" stroke-linejoin="round"/>
<path d="M176.866 89.0657H185.3V81.3907H176.866V89.0657Z" fill="white" stroke="#263238" stroke-linecap="round" stroke-linejoin="round"/>
<path d="M162.454 85.6924H119.604" stroke="#263238" stroke-linecap="round" stroke-linejoin="round"/>
<path d="M165.825 107.183H174.259V99.5084H165.825V107.183Z" fill="white" stroke="#263238" stroke-linecap="round" stroke-linejoin="round"/>
<path d="M176.866 107.183H185.3V99.5084H176.866V107.183Z" fill="white" stroke="#263238" stroke-linecap="round" stroke-linejoin="round"/>
<path d="M162.454 103.804H119.604" stroke="#263238" stroke-linecap="round" stroke-linejoin="round"/>
<path d="M165.825 125.301H174.259V117.626H165.825V125.301Z" fill="white" stroke="#263238" stroke-linecap="round" stroke-linejoin="round"/>
<path d="M176.866 125.301H185.3V117.626H176.866V125.301Z" fill="white" stroke="#263238" stroke-linecap="round" stroke-linejoin="round"/>
<path d="M162.454 121.922H119.604" stroke="#263238" stroke-linecap="round" stroke-linejoin="round"/>
<path d="M85.1892 89.0657H93.6235V81.3907H85.1892V89.0657Z" fill="white" stroke="#263238" stroke-linecap="round" stroke-linejoin="round"/>
<path d="M96.2356 89.0657H104.67V81.3907H96.2356V89.0657Z" fill="white" stroke="#263238" stroke-linecap="round" stroke-linejoin="round"/>
<path d="M81.8178 85.6924H38.9683" stroke="#263238" stroke-linecap="round" stroke-linejoin="round"/>
<path d="M85.1892 107.183H93.6235V99.5084H85.1892V107.183Z" fill="white" stroke="#263238" stroke-linecap="round" stroke-linejoin="round"/>
<path d="M96.2356 107.183H104.67V99.5084H96.2356V107.183Z" fill="white" stroke="#263238" stroke-linecap="round" stroke-linejoin="round"/>
<path d="M81.8178 103.804H38.9683" stroke="#263238" stroke-linecap="round" stroke-linejoin="round"/>
<path d="M85.1892 125.301H93.6235V117.626H85.1892V125.301Z" fill="white" stroke="#263238" stroke-linecap="round" stroke-linejoin="round"/>
<path d="M96.2356 125.301H104.67V117.626H96.2356V125.301Z" fill="white" stroke="#263238" stroke-linecap="round" stroke-linejoin="round"/>
<path d="M81.8178 121.922H38.9683" stroke="#263238" stroke-linecap="round" stroke-linejoin="round"/>
<path d="M50.923 151.688H41.6304V160.144H50.923V151.688Z" fill="white" stroke="#263238" stroke-linecap="round" stroke-linejoin="round"/>
<path d="M88.8464 151.688H79.5537V160.144H88.8464V151.688Z" fill="white" stroke="#263238" stroke-linecap="round" stroke-linejoin="round"/>
<path d="M128.275 151.688H118.982V160.144H128.275V151.688Z" fill="white" stroke="#263238" stroke-linecap="round" stroke-linejoin="round"/>
<path d="M99.0034 83.9605L100.44 86.5867L107.4 80.4683" stroke="#263238" stroke-width="2" stroke-linecap="round" stroke-linejoin="round"/>
<path d="M99.0034 101.874L100.44 104.495L107.4 98.3765" stroke="#263238" stroke-width="2" stroke-linecap="round" stroke-linejoin="round"/>
<path d="M86.999 120.66L88.4421 123.28L95.4023 117.162" stroke="#263238" stroke-width="2" stroke-linecap="round" stroke-linejoin="round"/>
<path d="M179.173 83.7454L180.61 86.366L187.57 80.2476" stroke="#263238" stroke-width="2" stroke-linecap="round" stroke-linejoin="round"/>
<path d="M167.554 102.089L168.991 104.71L175.951 98.5972" stroke="#263238" stroke-width="2" stroke-linecap="round" stroke-linejoin="round"/>
<path d="M167.554 120.496L168.991 123.116L175.951 117.003" stroke="#263238" stroke-width="2" stroke-linecap="round" stroke-linejoin="round"/>
<path d="M198.853 33.6204H29.2339V55.0831H198.853V33.6204Z" fill="white" stroke="#263238" stroke-linecap="round" stroke-linejoin="round"/>
<path d="M198.853 33.6204H192.465V171.011H198.853V33.6204Z" fill="#DBDBDB" stroke="#263238" stroke-linecap="round" stroke-linejoin="round"/>
<path d="M198.853 54.2681H192.465V80.7852H198.853V54.2681Z" fill="#949494" stroke="#263238" stroke-linecap="round" stroke-linejoin="round"/>
<path d="M198.853 33.6204H29.2339V44.0574H198.853V33.6204Z" fill="#DBDBDB" stroke="#263238" stroke-linecap="round" stroke-linejoin="round"/>
<path d="M104.726 36.6597H37.8359V41.0065H104.726V36.6597Z" fill="white" stroke="#263238" stroke-linecap="round" stroke-linejoin="round"/>
<path d="M188.839 36.8635H194.711" stroke="#263238" stroke-linecap="round" stroke-linejoin="round"/>
<path d="M188.839 39.1218H194.711" stroke="#263238" stroke-linecap="round" stroke-linejoin="round"/>
<path d="M188.839 41.386H194.711" stroke="#263238" stroke-linecap="round" stroke-linejoin="round"/>
<path d="M88.4858 63.7657C88.4858 62.4243 89.2633 61.6602 90.6815 61.6602C92.0997 61.6602 92.8709 62.4243 92.8709 63.7657V68.1126C92.8709 69.4483 92.0997 70.2124 90.6815 70.2124C89.2633 70.2124 88.4858 69.4483 88.4858 68.1126V63.7657ZM89.9351 68.1975C89.9351 68.7918 90.2212 69.0182 90.6815 69.0182C91.1418 69.0182 91.4279 68.7918 91.4279 68.1975V63.6695C91.4279 63.0695 91.1418 62.8431 90.6815 62.8431C90.2212 62.8431 89.9351 63.0695 89.9351 63.6695V68.1975Z" fill="#263238"/>
<path d="M95.091 64.0656V70.1162H93.791V61.7563H95.601L97.0876 66.7598V61.7563H98.3752V70.1162H96.8886L95.091 64.0656Z" fill="#263238"/>
<path d="M99.4077 61.7563H100.857V68.9219H103.252V70.1162H99.4264L99.4077 61.7563Z" fill="#263238"/>
<path d="M103.874 61.7563H105.317V70.1162H103.874V61.7563Z" fill="#263238"/>
<path d="M107.643 64.0654V70.1159H106.362V61.7561H108.172L109.658 66.7595V61.7561H110.94V70.1159H109.472L107.643 64.0654Z" fill="#263238"/>
<path d="M113.403 65.2823H115.387V66.4765H113.403V68.9217H115.891V70.1159H111.96V61.7561H115.897V62.9504H113.409L113.403 65.2823Z" fill="#263238"/>
<path d="M118.41 61.7563H122.87V62.9506H121.358V70.1162H119.915V62.9506H118.41V61.7563Z" fill="#263238"/>
<path d="M124.947 65.2823H126.925V66.4765H124.947V68.9217H127.435V70.1159H123.498V61.7561H127.435V62.9504H124.947V65.2823Z" fill="#263238"/>
<path d="M130.272 61.6599C131.677 61.6599 132.399 62.424 132.399 63.7654V64.0258H131.037V63.6805C131.037 63.0806 130.775 62.8542 130.315 62.8542C129.855 62.8542 129.594 63.0806 129.594 63.6805C129.594 65.3785 132.411 65.7238 132.411 68.1123C132.411 69.4481 131.677 70.2122 130.259 70.2122C128.841 70.2122 128.132 69.4481 128.132 68.1123V67.5973H129.5V68.1972C129.5 68.7915 129.786 69.0066 130.247 69.0066C130.707 69.0066 130.993 68.7915 130.993 68.1972C130.993 66.4992 128.175 66.154 128.175 63.7654C128.132 62.424 128.872 61.6599 130.272 61.6599Z" fill="#263238"/>
<path d="M132.822 61.7561H137.282V62.9504H135.776V70.1159H134.352V62.9504H132.84L132.822 61.7561Z" fill="#263238"/>
<path d="M48.864 149.65H47.4023L47.1535 148.133H45.4057L45.1569 149.65H43.8071L45.275 141.291H47.3898L48.864 149.65ZM45.5674 146.996H46.9607L46.264 142.768L45.5674 146.996Z" fill="#263238"/>
<path d="M86.178 143.198V143.492C86.178 144.353 85.8919 144.902 85.245 145.19C86.0225 145.462 86.3211 146.096 86.3211 146.979V147.664C86.3211 148.954 85.5747 149.645 84.1316 149.645H81.8613V141.291H84.0383C85.5373 141.291 86.178 141.924 86.178 143.198ZM83.3044 142.468V144.675H83.8704C84.4053 144.675 84.735 144.46 84.735 143.792V143.328C84.735 142.728 84.511 142.468 84.001 142.468H83.3044ZM83.3044 145.864V148.433H84.1316C84.6168 148.433 84.878 148.23 84.878 147.607V146.883C84.878 146.102 84.6043 145.864 83.9512 145.864H83.3044Z" fill="#263238"/>
<path d="M125.98 146.532V147.664C125.98 149.005 125.246 149.769 123.827 149.769C122.409 149.769 121.675 149.005 121.675 147.664V143.317C121.675 141.981 122.409 141.217 123.827 141.217C125.246 141.217 125.98 141.981 125.98 143.317V144.132H124.617V143.198C124.617 142.598 124.325 142.372 123.865 142.372C123.404 142.372 123.118 142.598 123.118 143.198V147.726C123.118 148.326 123.411 148.541 123.865 148.541C124.319 148.541 124.617 148.326 124.617 147.726V146.532H125.98Z" fill="#263238"/>
<path d="M39.6211 136.836H149.871" stroke="#263238" stroke-linecap="round" stroke-linejoin="round"/>
<path opacity="0.3" d="M220.704 34.2939H232.877V23.2173H220.704V34.2939Z" stroke="black" stroke-linecap="round" stroke-linejoin="round"/>
<path opacity="0.3" d="M236.646 34.2939H248.819V23.2173H236.646V34.2939Z" stroke="black" stroke-linecap="round" stroke-linejoin="round"/>
<path opacity="0.3" d="M223.323 27.5981L225.4 31.379L231.508 25.2605" stroke="black" stroke-width="2" stroke-linecap="round" stroke-linejoin="round"/>
<path opacity="0.3" d="M36.4368 196.804H48.6094V185.727H36.4368V196.804Z" stroke="black" stroke-linecap="round" stroke-linejoin="round"/>
<path opacity="0.3" d="M52.3724 196.804H64.5449V185.727H52.3724V196.804Z" stroke="black" stroke-linecap="round" stroke-linejoin="round"/>
<path opacity="0.3" d="M39.043 190.108L41.1204 193.889L47.2285 187.771" stroke="black" stroke-width="2" stroke-linecap="round" stroke-linejoin="round"/>
<path opacity="0.3" d="M94.1024 196.804H106.275V185.727H94.1024V196.804Z" stroke="black" stroke-linecap="round" stroke-linejoin="round"/>
<path opacity="0.3" d="M110.044 196.804H122.217V185.727H110.044V196.804Z" stroke="black" stroke-linecap="round" stroke-linejoin="round"/>
<path opacity="0.3" d="M96.7148 190.108L98.7923 193.889L104.9 187.771" stroke="black" stroke-width="2" stroke-linecap="round" stroke-linejoin="round"/>
<g opacity="0.3">
<path opacity="0.3" d="M112.98 28.7574C117.24 28.131 120.135 24.4812 119.446 20.6053C118.758 16.7295 114.747 14.0952 110.488 14.7216C106.228 15.3479 103.333 18.9977 104.022 22.8736C104.71 26.7495 108.721 29.3838 112.98 28.7574Z" stroke="black" stroke-linecap="round" stroke-linejoin="round"/>
<path opacity="0.3" d="M113.919 24.3097L111.736 21.74V17.6931" stroke="black" stroke-linecap="round" stroke-linejoin="round"/>
</g>
<g opacity="0.3">
<path opacity="0.3" d="M257.558 158.095H256.401L256.202 156.895H254.796L254.597 158.095H253.546L254.715 151.467H256.388L257.558 158.095ZM254.945 155.995H256.046L255.493 152.639L254.945 155.995Z" fill="black"/>
<path opacity="0.3" d="M273.848 152.99V153.228C273.892 153.492 273.845 153.762 273.714 154.001C273.583 154.24 273.373 154.437 273.114 154.563C273.406 154.684 273.647 154.888 273.801 155.144C273.955 155.4 274.013 155.695 273.966 155.984V156.55C273.995 156.764 273.97 156.98 273.892 157.184C273.814 157.387 273.686 157.571 273.518 157.723C273.35 157.874 273.146 157.988 272.922 158.057C272.698 158.125 272.459 158.146 272.225 158.118H270.427V151.467H272.156C273.338 151.467 273.848 151.965 273.848 152.99ZM271.572 152.424V154.178H272.02C272.443 154.178 272.704 154.009 272.704 153.477V153.109C272.704 152.633 272.53 152.424 272.119 152.424H271.572ZM271.572 155.124V157.161H272.225C272.61 157.161 272.847 157.003 272.847 156.51V155.944C272.847 155.333 272.623 155.141 272.107 155.141L271.572 155.124Z" fill="black"/>
<path opacity="0.3" d="M290.344 155.65V156.527C290.344 157.591 289.765 158.197 288.639 158.197C287.513 158.197 286.929 157.591 286.929 156.527V153.08C286.929 152.016 287.513 151.411 288.639 151.411C289.765 151.411 290.344 152.016 290.344 153.08V153.726H289.261V152.99C289.261 152.514 289.031 152.339 288.67 152.339C288.31 152.339 288.048 152.514 288.048 152.99V156.573C288.048 157.048 288.278 157.218 288.67 157.218C289.062 157.218 289.261 157.048 289.261 156.573V155.65H290.344Z" fill="black"/>
<path opacity="0.3" d="M259.834 161.712H250.983V169.766H259.834V161.712Z" stroke="black" stroke-miterlimit="10"/>
<path opacity="0.3" d="M276.299 161.712H267.448V169.766H276.299V161.712Z" stroke="black" stroke-miterlimit="10"/>
<path opacity="0.3" d="M292.763 161.712H283.912V169.766H292.763V161.712Z" stroke="black" stroke-miterlimit="10"/>
</g>
<path d="M50.0336 255.017H31.3052" stroke="#263238" stroke-miterlimit="10"/>
<path d="M294.411 255.017H56.1353" stroke="#263238" stroke-miterlimit="10"/>
<path d="M222.452 254.825L226.458 199.47L229.406 173.151L221.32 164.938L217.264 162.255C217.264 162.255 211.554 166.783 207.505 167.785C203.456 168.787 199.562 169.8 199.562 169.8C199.562 169.8 185.748 193.436 184.634 204.162C183.521 214.888 181.686 254.621 181.686 254.621L183.222 254.825H222.452Z" fill="#9E9E9E" stroke="#263238" stroke-miterlimit="10"/>
<path d="M203.463 209.188C203.463 209.188 202.772 208.865 204.153 205.628" stroke="#263238" stroke-miterlimit="10"/>
<path d="M201.839 169.234C202.526 173.706 202.906 178.213 202.977 182.728C202.977 182.728 207.126 181.216 210.441 175.936C212.273 173.102 213.849 170.137 215.156 167.072L201.839 169.234Z" fill="#263238" stroke="#263238" stroke-miterlimit="10"/>
<path d="M222.452 254.824L226.054 205.056C222.521 206.697 215.548 209.409 207.854 209.527C198.636 209.669 187.222 203.154 187.222 203.154L184.653 204.071C184.653 204.1 184.653 204.133 184.653 204.162C183.546 214.916 181.705 254.621 181.705 254.621L183.241 254.824H222.452Z" fill="white" stroke="#263238" stroke-miterlimit="10"/>
<path d="M216.456 226.966C216.456 239.786 216.941 252.119 217.078 254.813H244.228C244.602 250.817 246.94 225.947 248.141 217.033C249.453 207.292 258.062 192.791 258.062 187.601C258.062 182.41 259.809 183.231 251.947 179.456C244.085 175.681 226.744 167.53 224.343 166.534C221.942 165.538 219.317 163.138 219.317 163.138C219.317 163.138 220.188 168.108 219.939 181.618C219.69 195.129 216.456 212.471 216.456 226.966Z" fill="white"/>
<g opacity="0.2">
<path opacity="0.2" d="M219.317 163.189C219.641 165.541 219.828 167.906 219.877 170.276V163.67C219.529 163.382 219.317 163.189 219.317 163.189Z" fill="black"/>
<path opacity="0.2" d="M255.02 195.536V197.234C255.232 196.719 255.443 196.221 255.642 195.729V195.525H255.723C255.804 195.338 255.878 195.146 255.953 194.959H255.642V187.912H258.049C258.049 187.827 258.049 187.737 258.049 187.652C258.049 187.567 258.049 187.448 258.049 187.346H255.642V181.313C255.449 181.205 255.244 181.103 255.02 180.99V187.346H248.489V180.271H253.54L252.37 179.705H248.489V177.837L247.867 177.537V179.688H241.336V174.447L240.714 174.153V179.688H234.183V172.63H237.436L236.23 172.064H234.183V171.108L233.561 170.813V172.064H227.03V167.791C226.812 167.689 226.607 167.593 226.408 167.508V172.064H219.939C219.939 172.251 219.939 172.438 219.939 172.63H226.408V179.705H219.995C219.995 179.892 219.995 180.079 219.995 180.271H226.408V187.346H219.877V184.658C219.753 187.42 219.529 190.318 219.255 193.266V194.964H219.093L219.037 195.53H219.255V202.628H218.322L218.26 203.194H219.286V210.269H217.52L217.464 210.835H219.286V217.91H216.86L216.823 218.476H219.311V225.551H216.556C216.556 225.744 216.556 225.93 216.556 226.117H219.317V233.192H216.574C216.574 233.385 216.574 233.571 216.574 233.758H219.311V240.833H216.699C216.699 241.026 216.699 241.212 216.699 241.399H219.299V254.842H219.921V241.382H226.408V254.825H227.03V241.382H233.561V254.825H234.183V241.382H240.714V254.825H241.336V241.382H245.522C245.522 241.195 245.522 241.009 245.578 240.816H241.336V233.758H246.312C246.312 233.571 246.356 233.385 246.374 233.192H241.336V226.117H247.083C247.083 225.925 247.121 225.744 247.146 225.551H241.336V218.476H247.867V219.229L248.141 217.061C248.228 216.427 248.346 215.771 248.489 215.097V210.835H249.652L249.839 210.269H248.489V203.194H252.532C252.613 203.007 252.688 202.815 252.768 202.628H248.489V195.553L255.02 195.536ZM248.489 187.912H255.02V194.987H248.489V187.912ZM226.408 240.816H219.877V233.758H226.408V240.816ZM226.408 233.175H219.877V226.1H226.408V233.175ZM226.408 225.534H219.877V218.476H226.408V225.534ZM226.408 217.893H219.877V210.818H226.408V217.893ZM226.408 210.252H219.877V203.194H226.408V210.252ZM226.408 202.611H219.877V195.536H226.408V202.611ZM226.408 194.97H219.877V187.912H226.408V194.97ZM233.561 240.816H227.03V233.758H233.561V240.816ZM233.561 233.175H227.03V226.1H233.561V233.175ZM233.561 225.534H227.03V218.476H233.561V225.534ZM233.561 217.893H227.03V210.818H233.561V217.893ZM233.561 210.252H227.03V203.194H233.561V210.252ZM233.561 202.611H227.03V195.536H233.561V202.611ZM233.561 194.97H227.03V187.912H233.561V194.97ZM233.561 187.329H227.03V180.254H233.561V187.329ZM233.561 179.688H227.03V172.63H233.561V179.688ZM240.714 240.816H234.183V233.758H240.714V240.816ZM240.714 233.175H234.183V226.1H240.714V233.175ZM240.714 225.534H234.183V218.476H240.714V225.534ZM240.714 217.893H234.183V210.818H240.714V217.893ZM240.714 210.252H234.183V203.194H240.714V210.252ZM240.714 202.611H234.183V195.536H240.714V202.611ZM240.714 194.97H234.183V187.912H240.714V194.97ZM240.714 187.329H234.183V180.254H240.714V187.329ZM247.867 217.893H241.336V210.818H247.867V217.893ZM247.867 210.252H241.336V203.194H247.867V210.252ZM247.867 202.611H241.336V195.536H247.867V202.611ZM247.867 194.97H241.336V187.912H247.867V194.97ZM247.867 187.329H241.336V180.254H247.867V187.329Z" fill="black"/>
</g>
<path d="M216.456 226.966C216.456 239.786 216.941 252.119 217.078 254.813H244.228C244.602 250.817 246.94 225.947 248.141 217.033C249.453 207.292 258.062 192.791 258.062 187.601C258.062 182.41 259.809 183.231 251.947 179.456C244.085 175.681 226.744 167.53 224.343 166.534C221.942 165.538 219.317 163.138 219.317 163.138C219.317 163.138 220.188 168.108 219.939 181.618C219.69 195.129 216.456 212.471 216.456 226.966Z" stroke="#263238" stroke-miterlimit="10"/>
<path d="M219.317 163.189C219.317 163.189 220.188 168.159 219.939 181.669C219.89 185.065 219.635 188.733 219.317 192.514C220.064 191.58 222.471 188.597 223.049 188.427C223.702 188.229 227.198 191.212 230.034 191.608C232.871 192.004 233.965 192.004 230.911 189.021C227.857 186.039 226.557 177.3 225.45 170.74C225.24 169.335 224.9 167.949 224.436 166.597H224.362C221.936 165.578 219.317 163.189 219.317 163.189Z" fill="#263238" stroke="#263238" stroke-miterlimit="10"/>
<path d="M237.237 224.657C239.246 223.825 240.826 223.106 240.826 223.106L241.566 228.302C241.566 228.302 230.694 232.66 224.617 232.994C218.54 233.328 217.986 233.498 217.986 233.498L218.167 228.472" stroke="#263238" stroke-miterlimit="10"/>
<path d="M231.794 226.689C232.908 226.349 234.214 225.868 235.489 225.364" stroke="#263238" stroke-miterlimit="10"/>
<path d="M220.188 227.968C223.367 227.894 226.538 227.632 229.68 227.181" stroke="#263238" stroke-miterlimit="10"/>
<path d="M241.566 228.302L241.933 232.326" stroke="#263238" stroke-miterlimit="10"/>
<path d="M158.23 254.825H188.783C188.852 252.646 189.735 224.951 190.332 210.818C190.954 196.102 201.926 173.779 201.926 173.779C201.926 173.779 203.394 170.632 201.839 169.217C200.284 167.802 196.552 168.368 193.753 170.349C190.954 172.33 165.141 182.518 163.586 183.933C162.031 185.348 162.342 190.159 161.72 195.819C161.098 201.479 150.835 240.533 150.835 240.533C150.835 240.533 148.036 241.099 147.103 241.665C146.17 242.231 146.17 243.929 146.17 243.929C146.17 243.929 147.414 244.212 151.146 245.91C154.579 247.472 157.745 253.812 158.23 254.825Z" fill="white"/>
<path opacity="0.2" d="M197.796 180.254V183.147C198.008 182.626 198.213 182.122 198.418 181.635V180.254H199.003L199.245 179.688H198.418V172.63H202.337C202.38 172.455 202.43 172.262 202.461 172.064H198.418V168.51C198.213 168.538 198.008 168.566 197.796 168.612V172.064H191.265V171.679L190.643 171.968V172.064H190.432L189.188 172.63H190.643V179.705H184.112V174.838L183.49 175.104V179.688H176.959V177.883L176.337 178.149V179.688H172.723L171.405 180.254H176.337V187.346H169.806V180.95L169.184 181.222V187.346H162.653V185.92C162.303 187.981 162.096 190.061 162.031 192.146V194.976H161.807L161.751 195.542H162.031V202.628H160.358L160.227 203.194H162.031V210.269H158.542C158.498 210.456 158.449 210.648 158.405 210.835H162.031V217.91H156.651C156.601 218.103 156.558 218.289 156.508 218.476H162.031V225.551H155.5V222.438L154.878 224.883V225.523H154.717L154.573 226.089H154.878V233.192H152.751L152.602 233.758H154.878V240.833H149.597C148.963 240.988 148.34 241.177 147.731 241.399V241.399V244.478C147.918 244.546 148.123 244.625 148.353 244.722V241.399H154.878V249.323C155.096 249.606 155.301 249.889 155.5 250.178V241.405H162.031V254.847H162.653V241.382H169.184V254.825H169.806V241.382H176.337V254.825H176.959V241.382H183.49V254.825H184.112V241.382H189.219V240.816H184.112V233.758H189.48V233.192H184.112V226.117H189.748V225.551H184.112V218.476H190.027C190.027 218.289 190.027 218.097 190.027 217.91H184.112V210.835H190.332C190.332 210.648 190.332 210.462 190.363 210.269H184.112V203.194H190.643V207.377C190.805 206.171 191.01 204.932 191.265 203.675V203.194H191.365C191.402 203.007 191.446 202.821 191.483 202.628H191.265V195.553H193.349C193.405 195.366 193.467 195.18 193.523 194.987H191.265V187.912H195.93C196.005 187.725 196.073 187.533 196.142 187.346H191.265V180.271L197.796 180.254ZM191.265 172.63H197.796V179.705H191.265V172.63ZM162.031 240.833H155.5V233.758H162.031V240.833ZM162.031 233.192H155.5V226.117H162.031V233.192ZM169.184 240.833H162.653V233.758H169.184V240.833ZM169.184 233.192H162.653V226.117H169.184V233.192ZM169.184 225.551H162.653V218.476H169.184V225.551ZM169.184 217.91H162.653V210.835H169.184V217.91ZM169.184 210.269H162.653V203.194H169.184V210.269ZM169.184 202.628H162.653V195.553H169.184V202.628ZM169.184 194.987H162.653V187.912H169.184V194.987ZM176.337 240.833H169.806V233.758H176.337V240.833ZM176.337 233.192H169.806V226.117H176.337V233.192ZM176.337 225.551H169.806V218.476H176.337V225.551ZM176.337 217.91H169.806V210.835H176.337V217.91ZM176.337 210.269H169.806V203.194H176.337V210.269ZM176.337 202.628H169.806V195.553H176.337V202.628ZM176.337 194.987H169.806V187.912H176.337V194.987ZM183.49 240.833H176.959V233.758H183.49V240.833ZM183.49 233.192H176.959V226.117H183.49V233.192ZM183.49 225.551H176.959V218.476H183.49V225.551ZM183.49 217.91H176.959V210.835H183.49V217.91ZM183.49 210.269H176.959V203.194H183.49V210.269ZM183.49 202.628H176.959V195.553H183.49V202.628ZM183.49 194.987H176.959V187.912H183.49V194.987ZM183.49 187.346H176.959V180.271H183.49V187.346ZM190.643 202.628H184.112V195.553H190.643V202.628ZM190.643 194.987H184.112V187.912H190.643V194.987ZM190.643 187.346H184.112V180.271H190.643V187.346Z" fill="black"/>
<path d="M158.23 254.825H188.783C188.852 252.646 189.735 224.951 190.332 210.818C190.954 196.102 201.926 173.779 201.926 173.779C201.926 173.779 203.394 170.632 201.839 169.217C200.284 167.802 196.552 168.368 193.753 170.349C190.954 172.33 165.141 182.518 163.586 183.933C162.031 185.348 162.342 190.159 161.72 195.819C161.098 201.479 150.835 240.533 150.835 240.533C150.835 240.533 148.036 241.099 147.103 241.665C146.17 242.231 146.17 243.929 146.17 243.929C146.17 243.929 147.414 244.212 151.146 245.91C154.579 247.472 157.745 253.812 158.23 254.825Z" stroke="#263238" stroke-miterlimit="10"/>
<path d="M146.17 243.946C146.17 243.946 147.414 244.229 151.146 245.927C154.878 247.625 158.299 254.983 158.299 254.983H164.326C164.706 253.953 165.632 250.206 161.409 245.644C156.433 240.267 150.835 240.55 150.835 240.55C150.835 240.55 148.036 241.116 147.103 241.682C146.17 242.248 146.17 243.946 146.17 243.946Z" fill="#263238" stroke="#263238" stroke-miterlimit="10"/>
<path d="M198.082 168.543C196.745 171.764 193.579 179.048 190.954 182.518C187.533 187.046 181.313 190.725 183.49 192.423C185.667 194.121 191.887 188.744 191.887 188.744C191.887 188.744 193.442 192.706 193.753 193.838C193.77 193.889 193.797 193.937 193.834 193.98C196.079 187.104 198.779 180.358 201.92 173.779C201.92 173.779 203.388 170.632 201.833 169.217C201.031 168.481 199.662 168.289 198.082 168.543Z" fill="#263238" stroke="#263238" stroke-miterlimit="10"/>
<path d="M175.367 195.864C175.545 194.818 175.661 193.764 175.715 192.706" stroke="#263238" stroke-miterlimit="10"/>
<path d="M170.428 255.532C170.428 255.532 171.361 237.42 171.361 226.949C171.361 219.404 173.619 206.715 174.887 198.943" stroke="#263238" stroke-miterlimit="10"/>
<path d="M171.983 223.004C171.983 223.004 176.959 224.419 179.447 224.702L186.911 225.551L186.345 231.964C186.345 231.964 185.978 231.777 180.38 230.079C174.782 228.381 171.361 226.966 171.361 226.966" stroke="#263238" stroke-miterlimit="10"/>
<path d="M186.345 231.947C186.345 231.947 185.978 244.512 185.978 246.21C185.978 247.908 180.38 246.776 180.38 246.776" stroke="#263238" stroke-miterlimit="10"/>
<path d="M190.811 162.567C190.811 162.567 196.676 170.242 201.926 173.779C207.176 177.317 211.654 172.364 215.156 167.055C218.658 161.746 220.99 157.852 222.738 153.25C224.486 148.649 222.738 141.042 215.741 135.025C208.743 129.008 192.397 120.156 188.317 124.758C184.236 129.359 180.343 139.474 183.061 148.117C184.684 153.312 187.308 158.205 190.811 162.567V162.567Z" fill="#9E9E9E" stroke="#263238" stroke-miterlimit="10"/>
<path d="M188.342 146.056C190.555 145.453 192.914 145.453 195.128 146.056" stroke="#263238" stroke-width="2" stroke-miterlimit="10" stroke-linecap="round"/>
<path d="M193.361 150.794C193.548 151.711 193.311 152.52 192.832 152.6C192.353 152.679 191.825 152 191.638 151.077C191.451 150.154 191.688 149.351 192.167 149.271C192.646 149.192 193.174 149.871 193.361 150.794Z" fill="#263238"/>
<path d="M210.665 151.037C210.846 151.954 210.609 152.735 210.136 152.843C209.664 152.95 209.129 152.243 208.942 151.32C208.756 150.398 208.992 149.594 209.471 149.515C209.95 149.435 210.479 150.115 210.665 151.037Z" fill="#263238"/>
<path d="M197.846 163.517C200.093 164.222 202.47 164.522 204.843 164.4C208.93 164.225 212.432 161.57 212.432 161.57" stroke="#263238" stroke-miterlimit="10"/>
<path d="M188.92 128.669C188.92 128.669 197.56 146.6 198.642 147.092C199.724 147.585 201.883 141.687 201.883 141.687C201.883 141.687 204.85 146.594 208.37 148.071C211.891 149.549 212.96 147.092 212.96 147.092C214.724 147.996 216.437 148.98 218.092 150.041L219.442 151.02L220.791 155.441C220.791 155.441 216.742 167.479 218.092 168.957C219.442 170.434 226.999 168.464 226.999 168.464C226.999 168.464 225.133 170.921 227.54 170.921C229.947 170.921 234.289 171.413 240.496 163.795C246.704 156.176 247.245 143.9 247.245 143.9C247.245 143.9 250.212 146.843 250.486 143.158C250.759 139.474 246.978 133.333 246.978 133.333C246.978 133.333 252.912 138.738 252.377 133.089C251.842 127.441 248.327 121.05 246.978 119.579C245.628 118.107 237.523 113.919 237.523 113.919C237.523 113.919 240.764 113.426 238.338 109.985C235.912 106.544 226.999 105.565 223.758 105.565C220.518 105.565 213.769 106.55 213.769 106.55C213.769 106.55 218.092 98.9312 213.502 98.4388C208.911 97.9464 200.813 106.057 200.813 106.057C200.813 106.057 192.727 100.159 190.282 101.388C187.838 102.616 189.474 104.337 189.474 104.337C189.474 104.337 178.95 105.072 175.976 109.249C173.003 113.426 176.517 115.883 176.517 115.883C176.517 115.883 157.621 127.673 160.588 132.093C163.555 136.514 168.96 132.342 168.96 132.342C168.96 132.342 161.397 150.03 162.479 151.258C163.561 152.486 168.699 150.765 168.699 150.765C168.699 150.765 168.431 165.012 172.481 166.489C176.53 167.966 177.339 165.261 177.339 165.261C177.339 165.261 179.497 167.225 184.361 167.468C189.225 167.712 190.836 162.555 190.836 162.555C190.836 162.555 185.437 151.009 185.711 141.432C185.984 131.855 188.92 128.669 188.92 128.669Z" fill="#263238" stroke="#263238" stroke-miterlimit="10"/>
<path d="M199.793 149.356C199.793 149.356 197.846 158.559 199.401 160.506C200.956 162.453 206.404 160.506 206.79 159.448" fill="#9E9E9E"/>
<path d="M199.793 149.356C199.793 149.356 197.846 158.559 199.401 160.506C200.956 162.453 206.404 160.506 206.79 159.448" stroke="#263238" stroke-miterlimit="10"/>
<path d="M191.719 155.022C195.961 155.022 199.4 152.723 199.4 149.888C199.4 147.053 195.961 144.754 191.719 144.754C187.476 144.754 184.037 147.053 184.037 149.888C184.037 152.723 187.476 155.022 191.719 155.022Z" stroke="#263238" stroke-miterlimit="10"/>
<path d="M210.192 154.671C214.435 154.671 217.874 152.372 217.874 149.537C217.874 146.702 214.435 144.404 210.192 144.404C205.95 144.404 202.511 146.702 202.511 149.537C202.511 152.372 205.95 154.671 210.192 154.671Z" stroke="#263238" stroke-miterlimit="10"/>
<path d="M199.792 149.356C199.792 149.356 201.347 148.298 202.511 149.537" stroke="#263238" stroke-miterlimit="10"/>
<path d="M135.789 247.291C135.789 247.291 145.554 244.784 148.558 244.331C151.562 243.878 157.577 248.887 158.579 251.621C159.58 254.355 158.299 254.966 158.299 254.966L138.289 254.361L135.789 247.291Z" fill="#9E9E9E" stroke="#263238" stroke-miterlimit="10"/>
<path d="M139.328 246.408C139.328 246.408 146.699 248.921 148.54 249.929C150.381 250.936 149.827 252.945 148.726 253.947C147.398 254.957 145.814 255.65 144.117 255.962C142.4 256.051 140.678 256.051 138.961 255.962C136.753 255.792 134.725 256.132 132.884 256.132C131.043 256.132 125.513 255.628 125.513 255.628L123.853 254.621C123.853 254.621 120.743 255.458 118.329 256.319C115.916 257.179 116.669 255.311 118.51 253.97C120.351 252.628 124.96 249.278 125.7 248.944C126.44 248.61 135.832 246.114 135.832 246.114L139.328 246.408Z" fill="#9E9E9E" stroke="#263238" stroke-miterlimit="10"/>
<path d="M142.09 247.076C142.09 247.076 137.294 245.067 136.007 245.067C134.719 245.067 125.507 247.897 124.22 248.751C122.932 249.606 121.638 257.638 122.559 258.141C123.48 258.645 124.22 257.134 124.425 256.132C124.63 255.13 127.193 249.759 127.193 249.759L125.327 258.311C125.327 258.311 126.067 259.647 126.801 258.475C127.535 257.304 132.144 249.255 132.511 248.751C132.994 248.284 133.554 247.889 134.172 247.58C134.172 247.58 133.251 251.27 132.511 254.791C131.771 258.311 132.331 259.319 133.438 259.483C134.545 259.647 135.092 257.304 135.646 256.132C136.199 254.96 138.594 248.248 138.594 248.248" fill="#9E9E9E"/>
<path d="M142.09 247.076C142.09 247.076 137.294 245.067 136.007 245.067C134.719 245.067 125.507 247.897 124.22 248.751C122.932 249.606 121.638 257.638 122.559 258.141C123.48 258.645 124.22 257.134 124.425 256.132C124.63 255.13 127.193 249.759 127.193 249.759L125.327 258.311C125.327 258.311 126.067 259.647 126.801 258.475C127.535 257.304 132.144 249.255 132.511 248.751C132.994 248.284 133.554 247.889 134.172 247.58C134.172 247.58 133.251 251.27 132.511 254.791C131.771 258.311 132.331 259.319 133.438 259.483C134.545 259.647 135.092 257.304 135.646 256.132C136.199 254.96 138.594 248.248 138.594 248.248" stroke="#263238" stroke-miterlimit="10"/>
<path d="M147.414 250.432C147.414 250.432 141.89 255.628 141.15 256.8C140.41 257.972 140.416 258.141 142.444 258.141C144.472 258.141 150.735 254.451 151.283 253.947C151.83 253.444 151.656 251.938 150.362 250.931C149.95 250.639 149.467 250.442 148.955 250.355C148.442 250.269 147.913 250.295 147.414 250.432V250.432Z" fill="#9E9E9E" stroke="#263238" stroke-miterlimit="10"/>
<path d="M181.91 249.855C181.91 249.855 174.54 252.023 172.73 253.251C170.919 254.479 168.307 255.832 168.873 256.245C169.439 256.658 171.255 256.245 171.821 255.832C172.387 255.419 174.994 255.006 174.994 255.006C174.994 255.006 178.054 253.353 180.436 252.017C182.818 250.681 184.628 249.233 181.91 249.855Z" fill="#9E9E9E" stroke="#263238" stroke-miterlimit="10"/>
<path d="M222.595 238.501C222.595 238.501 202.069 241.897 194.642 244.269C187.216 246.64 184.261 248.293 180.548 250.682C176.834 253.07 169.308 257.581 170.428 258.373C171.547 259.166 175.447 256.387 176.107 255.793C176.766 255.198 181.562 253.41 181.562 253.41L184.771 251.915C184.771 251.915 179.938 257.332 178.197 258.707C176.455 260.083 177.631 260.943 178.943 260.547C180.255 260.151 182.731 257.779 182.731 257.779L190.711 253.002C190.711 253.002 187.433 257.179 185.903 258.368C184.373 259.556 187.651 260.558 188.31 259.562C188.97 258.566 192.241 255.985 192.241 255.985C192.241 255.985 197.696 253.404 199.009 252.408C200.321 251.412 203.593 248.633 203.593 248.633L228.05 250.421C228.05 250.421 229.58 249.629 228.709 245.055C227.838 240.482 222.595 238.501 222.595 238.501Z" fill="#9E9E9E" stroke="#263238" stroke-miterlimit="10"/>
<path d="M239.19 203.33L251.201 230.362L231.763 236.52L237.224 251.027C237.224 251.027 251.182 251.061 262.104 250.461C273.027 249.861 280.69 243.867 278.942 236.718C277.194 229.569 270.644 219.229 265.401 206.907C260.158 194.585 261.781 187.238 259.38 183.463C256.979 179.688 250.206 178.692 250.206 178.692L246.474 178.126" fill="white"/>
<path opacity="0.2" d="M277.101 244.235V241.405H278.724C278.793 241.218 278.849 241.031 278.898 240.839H277.101V233.758H278.034C277.965 233.577 277.891 233.384 277.822 233.192H277.101V231.466C276.902 230.996 276.696 230.515 276.479 230.034V233.192H269.948V226.117H274.638C274.544 225.93 274.457 225.743 274.364 225.551H269.948V218.476H270.819C270.719 218.289 270.626 218.102 270.532 217.91H269.948V216.727C269.742 216.308 269.531 215.889 269.326 215.465V217.91H262.795V210.835H267.149C267.062 210.648 266.975 210.461 266.894 210.269H262.795V203.194H263.958C263.889 203.007 263.827 202.815 263.765 202.628H262.795V199.402C262.558 198.508 262.353 197.653 262.173 196.832V202.628H255.642V195.553H261.912L261.8 194.987H255.642V187.912H260.748L260.655 187.346H255.642V180.407C255.096 180.141 254.536 179.901 253.962 179.688H248.489V178.42L247.867 178.318V179.688H246.032L245.864 180.254H247.867V187.346H243.824L243.662 187.912H247.873V194.987H241.609L241.442 195.553H247.867V202.628H241.336V195.915L240.714 198.06V202.588H239.395L239.233 203.154H240.714V206.737L241.336 208.135V203.194H247.867V210.269H242.269L242.518 210.835H247.867V217.91H245.69L245.945 218.476H247.898V222.874L248.52 224.272V218.476H255.02V225.551H249.055L249.31 226.117H255.02V233.192H248.489V231.234L247.867 231.432V233.192H242.306L240.515 233.758H240.714V240.833H234.183V235.739L233.561 235.937V240.805H233.38L234.183 242.933V241.371H240.714V250.993H241.336V241.371H247.867V250.919H248.489V241.382H255.02V250.738H255.642V241.382H262.173V250.438L262.795 250.393V241.382H269.326V249.148L269.948 248.933V241.382H276.479V244.937C276.696 244.704 276.908 244.472 277.101 244.235ZM247.867 240.839H241.336V233.758H247.867V240.839ZM255.02 240.839H248.489V233.758H255.02V240.839ZM255.02 217.916H248.489V210.841H255.02V217.916ZM255.02 210.275H248.489V203.194H255.02V210.275ZM255.02 202.634H248.489V195.559H255.02V202.634ZM255.02 194.993H248.489V187.912H255.02V194.993ZM255.02 187.352H248.489V180.277H255.02V187.352ZM262.173 240.839H255.642V233.758H262.173V240.839ZM262.173 233.198H255.642V226.123H262.173V233.198ZM262.173 225.557H255.642V218.476H262.173V225.557ZM262.173 217.916H255.642V210.841H262.173V217.916ZM262.173 210.275H255.642V203.194H262.173V210.275ZM269.326 240.839H262.795V233.758H269.326V240.839ZM269.326 233.198H262.795V226.123H269.326V233.198ZM269.326 225.557H262.795V218.476H269.326V225.557ZM269.948 240.839V233.758H276.479V240.833L269.948 240.839Z" fill="#263238"/>
<path d="M239.19 203.33L251.201 230.362L231.763 236.52L237.224 251.027C237.224 251.027 251.182 251.061 262.104 250.461C273.027 249.861 280.69 243.867 278.942 236.718C277.194 229.569 270.644 219.229 265.401 206.907C260.158 194.585 261.781 187.238 259.38 183.463C256.979 179.688 250.206 178.692 250.206 178.692L246.474 178.126" stroke="#263238" stroke-miterlimit="10"/>
<path d="M262.894 227.611C258.931 228.279 255.024 229.196 251.201 230.356C251.201 230.356 259.498 225.387 264.082 224.991" stroke="#263238" stroke-miterlimit="10"/>
<path d="M268.455 227.375C267.595 227.261 266.723 227.234 265.855 227.295" stroke="#263238" stroke-miterlimit="10"/>
<path d="M237.442 234.324C237.442 234.324 241.858 238.167 243.164 241.144C244.471 244.122 243.992 252.21 243.121 253.002C242.25 253.795 225.997 253.698 223.323 250.659C222.626 249.866 227.397 248.038 224.996 243.663C222.595 239.288 221.5 238.897 221.5 238.897C221.5 238.897 219.535 237.901 223.248 235.716C226.961 233.532 235.477 231.947 237.442 234.324Z" fill="#263238" stroke="#263238" stroke-miterlimit="10"/>
<path d="M276.162 264.967H260.04L258.024 235.966H278.177L276.162 264.967Z" fill="#263238" stroke="#263238" stroke-linejoin="round"/>
<path d="M279.073 236.011H257.135V240.233H279.073V236.011Z" fill="white" stroke="#263238" stroke-linejoin="round"/>
<path d="M279.073 236.169H257.135L259.324 233.667H276.877L279.073 236.169Z" fill="white" stroke="#263238" stroke-linejoin="round"/>
<path d="M276.752 256.46L277.555 244.908H258.646L259.448 256.46H276.752Z" fill="white" stroke="#263238" stroke-linejoin="round"/>
<path d="M183.253 266.897L203.12 262.12V264.565L183.253 269.631V266.897Z" fill="#263238" stroke="#263238" stroke-linejoin="round"/>
<path d="M203.12 262.12H99.2525L79.1743 266.897H183.254L203.12 262.12Z" fill="white" stroke="#263238" stroke-linejoin="round"/>
<path d="M183.254 212.278H79.1743V269.631H183.254V212.278Z" fill="white" stroke="#263238" stroke-linejoin="round"/>
<path d="M183.254 220.576C160.613 221.555 147.128 240.544 127.093 253.268C108.831 264.871 86.2776 266.852 79.1992 267.163V269.631H183.254V220.576Z" fill="#263238" stroke="#263238" stroke-linejoin="round"/>
<path d="M183.254 266.897H79.1743V269.631H183.254V266.897Z" fill="white" stroke="#263238" stroke-miterlimit="10"/>
<path d="M48.3605 247.976C48.3605 247.976 39.6898 235.354 46.65 228.251C53.6102 221.147 64.856 224.566 67.176 231.143C69.4961 237.72 64.5761 248.768 64.5761 248.768L48.3605 247.976Z" fill="white" stroke="#263238" stroke-linecap="round" stroke-linejoin="round"/>
<path d="M48.6468 233.509C47.2038 233.509 41.7115 231.669 39.9761 229.304C38.2408 226.938 37.9422 221.674 42.8684 221.674C47.7947 221.674 49.5176 229.564 49.5176 229.564L49.8037 232.456" fill="white"/>
<path d="M48.6468 233.509C47.2038 233.509 41.7115 231.669 39.9761 229.304C38.2408 226.938 37.9422 221.674 42.8684 221.674C47.7947 221.674 49.5176 229.564 49.5176 229.564L49.8037 232.456" stroke="#263238" stroke-linecap="round" stroke-linejoin="round"/>
<path d="M53.0941 228.596C51.8004 228.03 47.7885 224.136 47.3966 221.312C47.0048 218.487 49.331 213.665 53.7286 215.652C58.1261 217.638 55.8061 225.415 55.8061 225.415L54.6429 228.121" fill="white"/>
<path d="M53.0941 228.596C51.8004 228.03 47.7885 224.136 47.3966 221.312C47.0048 218.487 49.331 213.665 53.7286 215.652C58.1261 217.638 55.8061 225.415 55.8061 225.415L54.6429 228.121" stroke="#263238" stroke-linecap="round" stroke-linejoin="round"/>
<path d="M58.3436 229.92C57.6221 228.788 56.6518 223.53 58.0451 220.983C59.4383 218.436 64.3148 215.595 66.753 219.478C69.1913 223.36 62.5297 228.647 62.5297 228.647L59.911 230.311" fill="white"/>
<path d="M58.3436 229.92C57.6221 228.788 56.6518 223.53 58.0451 220.983C59.4383 218.436 64.3148 215.595 66.753 219.478C69.1913 223.36 62.5297 228.647 62.5297 228.647L59.911 230.311" stroke="#263238" stroke-linecap="round" stroke-linejoin="round"/>
<path d="M60.0665 239.35C59.8302 238.048 60.9125 232.819 63.1765 230.86C65.4406 228.902 71.107 227.776 71.9219 232.185C72.7367 236.594 64.4579 239.463 64.4579 239.463L61.3479 240.199" fill="white"/>
<path d="M60.0665 239.35C59.8302 238.048 60.9125 232.819 63.1765 230.86C65.4406 228.902 71.107 227.776 71.9219 232.185C72.7367 236.594 64.4579 239.463 64.4579 239.463L61.3479 240.199" stroke="#263238" stroke-linecap="round" stroke-linejoin="round"/>
<path d="M40.6104 226.128L41.5869 227.526" stroke="white" stroke-linecap="round" stroke-linejoin="round"/>
<path d="M43.4033 229.558L44.9334 230.696" stroke="white" stroke-linecap="round" stroke-linejoin="round"/>
<path d="M41.73 223.462L43.2601 225.494" stroke="white" stroke-linecap="round" stroke-linejoin="round"/>
<path d="M45.3564 227.147L47.0296 229.938" stroke="white" stroke-linecap="round" stroke-linejoin="round"/>
<path d="M49.2563 220.417L49.8161 221.94" stroke="white" stroke-linecap="round" stroke-linejoin="round"/>
<path d="M51.2095 224.73L52.186 226.004" stroke="white" stroke-linecap="round" stroke-linejoin="round"/>
<path d="M50.793 217.372L52.0494 219.908" stroke="white" stroke-linecap="round" stroke-linejoin="round"/>
<path d="M45.9102 235.269L46.3331 237.55" stroke="white" stroke-linecap="round" stroke-linejoin="round"/>
<path d="M47.1665 239.707L47.7263 241.614" stroke="white" stroke-linecap="round" stroke-linejoin="round"/>
<path d="M48.5596 235.394L49.1194 237.929" stroke="white" stroke-linecap="round" stroke-linejoin="round"/>
<path d="M50.376 239.707L50.7927 241.614" stroke="white" stroke-linecap="round" stroke-linejoin="round"/>
<path d="M51.3525 232.094L52.186 235.648" stroke="white" stroke-linecap="round" stroke-linejoin="round"/>
<path d="M53.3057 239.073L53.4425 240.725" stroke="white" stroke-linecap="round" stroke-linejoin="round"/>
<path d="M54.8359 230.951L55.5326 234.25" stroke="white" stroke-linecap="round" stroke-linejoin="round"/>
<path d="M55.5322 237.68L55.8121 241.105" stroke="white" stroke-linecap="round" stroke-linejoin="round"/>
<path d="M58.8848 232.219V235.015" stroke="white" stroke-linecap="round" stroke-linejoin="round"/>
<path d="M58.4619 238.569L58.605 240.725" stroke="white" stroke-linecap="round" stroke-linejoin="round"/>
<path d="M62.368 219.019L61.6714 220.547" stroke="white" stroke-linecap="round" stroke-linejoin="round"/>
<path d="M61.3915 222.319L60.6948 224.481" stroke="white" stroke-linecap="round" stroke-linejoin="round"/>
<path d="M65.4347 221.94L64.3213 223.972" stroke="white" stroke-linecap="round" stroke-linejoin="round"/>
<path d="M61.9513 226.259L60.6948 227.526" stroke="white" stroke-linecap="round" stroke-linejoin="round"/>
<path d="M59.3015 221.815L58.8848 223.462" stroke="white" stroke-linecap="round" stroke-linejoin="round"/>
<path d="M65.4344 230.951L63.9043 233.237" stroke="white" stroke-linecap="round" stroke-linejoin="round"/>
<path d="M62.9281 234.63L62.0884 236.662" stroke="white" stroke-linecap="round" stroke-linejoin="round"/>
<path d="M64.1846 237.68L66.6912 236.407" stroke="white" stroke-linecap="round" stroke-linejoin="round"/>
<path d="M68.2271 230.951L66.9707 232.858" stroke="white" stroke-linecap="round" stroke-linejoin="round"/>
<path d="M69.4837 233.107L67.8105 234.25" stroke="white" stroke-linecap="round" stroke-linejoin="round"/>
<path d="M67.6799 243.573H43.9692V265.148H67.6799V243.573Z" fill="#263238" stroke="#263238" stroke-linecap="round" stroke-linejoin="round"/>
</svg>
